<?xml version="1.0" encoding="UTF-8"?>
<svg width="63px" height="63px" viewBox="0 0 63 63" version="1.1" xmlns="http://www.w3.org/2000/svg" xmlns:xlink="http://www.w3.org/1999/xlink">
    <!-- Generator: sketchtool 61.1 (101010) - https://sketch.com -->
    <title>BE9B62B5-DECB-456B-B327-7B9657951E81</title>
    <desc>Created with sketchtool.</desc>
    <g id="Asset-Artboard-Page" stroke="none" stroke-width="1" fill="none" fill-rule="evenodd">
        <g id="Charactrer/Captain-Charactrer/FirstMate" transform="translate(0.500000, 0.000000)">
            <g id="Charactrer/FirstMate">
                <path d="M61.4877815,30.7436067 C61.4877815,47.7237196 47.7235776,61.4879236 30.7434646,61.4879236 C13.7647722,61.4879236 -0.000852272768,47.7237196 -0.000852272768,30.7436067 C-0.000852272768,13.7649142 13.7647722,-0.000710227306 30.7434646,-0.000710227306 C47.7235776,-0.000710227306 61.4877815,13.7649142 61.4877815,30.7436067" id="Fill-1" fill="#FFFFFF"></path>
                <path d="M61.4877815,30.7436067 C61.4877815,47.7237196 47.7235776,61.4879236 30.7434646,61.4879236 C13.7647722,61.4879236 -0.000852272768,47.7237196 -0.000852272768,30.7436067 C-0.000852272768,13.7649142 13.7647722,-0.000710227306 30.7434646,-0.000710227306 C47.7235776,-0.000710227306 61.4877815,13.7649142 61.4877815,30.7436067 Z" id="Stroke-3" stroke="#A7A2C1" stroke-width="2"></path>
                <path d="M47.1008529,23.3389203 C45.0227278,20.1073863 38.4034095,17.7437501 30.5511365,17.7437501 C22.700284,17.7437501 16.0809656,20.1073863 14.0028406,23.3389203 C13.7571019,24.1428976 13.5696019,24.972443 13.4431815,25.8218748 L47.660512,25.8218748 C47.5340915,24.972443 47.3451711,24.1428976 47.1008529,23.3389203 Z" id="Stroke-5" stroke="#463B83" stroke-width="2" stroke-linecap="round" stroke-linejoin="round"></path>
                <path d="M30.5512791,11.08054 C20.9987223,11.08054 13.2544041,18.8234378 13.2544041,28.3774152 C13.2544041,31.0862221 13.8893473,33.6444607 14.9987223,35.9257107 L14.9987223,40.5322449 C14.9987223,42.0819608 16.2558245,43.3390631 17.8055404,43.3390631 L22.2444609,43.3390631 L22.2444609,47.2566768 C22.2444609,48.9967336 23.6563927,50.4086654 25.3964496,50.4086654 L35.7075292,50.4086654 C37.447586,50.4086654 38.8580973,48.9967336 38.8580973,47.2566768 L38.8580973,43.3390631 L43.2984383,43.3390631 C44.8467337,43.3390631 46.103836,42.0819608 46.103836,40.5322449 L46.103836,35.9257107 C47.2146315,33.6444607 47.8481542,31.0862221 47.8481542,28.3774152 C47.8481542,18.8234378 40.1052564,11.08054 30.5512791,11.08054 Z" id="Stroke-7" stroke="#463B83" stroke-width="2" stroke-linecap="round" stroke-linejoin="round"></path>
                <path d="M52.6245755,35.1700293 C52.9157686,30.6742907 48.7055414,27.803552 47.9271323,27.3134952 C47.9484391,27.6728702 47.9811096,28.0308248 47.9811096,28.3958816 C47.9811096,31.1061089 47.3475868,33.662927 46.2367914,35.9455975 L51.10753,40.7609384 L51.10753,38.9143475 C51.10753,38.6103702 51.216905,38.3205975 51.4015641,38.0791202 C52.7652005,36.2936089 52.6245755,35.1700293 52.6245755,35.1700293 Z" id="Stroke-9" stroke="#463B83" stroke-width="2" stroke-linecap="round" stroke-linejoin="round"></path>
                <path d="M28.4095169,34.9119326 C28.4095169,36.9176145 26.7830965,38.5454554 24.7774148,38.5454554 C22.771733,38.5454554 21.1453126,36.9176145 21.1453126,34.9119326 C21.1453126,32.9062507 22.771733,31.2784097 24.7774148,31.2784097 C26.7830965,31.2784097 28.4095169,32.9062507 28.4095169,34.9119326 Z" id="Stroke-11" stroke="#463B83" stroke-width="2" stroke-linecap="round" stroke-linejoin="round"></path>
                <path d="M39.9583815,34.9119326 C39.9583815,36.9176145 38.3319611,38.5454554 36.3262794,38.5454554 C34.3205976,38.5454554 32.6941772,36.9176145 32.6941772,34.9119326 C32.6941772,32.9062507 34.3205976,31.2784097 36.3262794,31.2784097 C38.3319611,31.2784097 39.9583815,32.9062507 39.9583815,34.9119326 Z" id="Stroke-13" stroke="#463B83" stroke-width="2" stroke-linecap="round" stroke-linejoin="round"></path>
            </g>
        </g>
    </g>
</svg>