<?xml version="1.0" encoding="UTF-8"?>
<svg width="329px" height="257px" viewBox="0 0 329 257" version="1.1" xmlns="http://www.w3.org/2000/svg" xmlns:xlink="http://www.w3.org/1999/xlink">
    <!-- Generator: sketchtool 61.2 (101010) - https://sketch.com -->
    <title>116D5756-ACC6-46D4-8252-2B721441C7D5</title>
    <desc>Created with sketchtool.</desc>
    <g id="Viz-MVP" stroke="none" stroke-width="1" fill="none" fill-rule="evenodd">
        <g id="3.0_Table_375" transform="translate(-23.000000, -123.000000)">
            <g id="Rules" transform="translate(24.000000, 118.000000)">
                <g id="Characrer-Container-5" transform="translate(0.000000, 201.384097)">
                    <rect id="Rectangle" stroke="#E3E0E6" x="0" y="0" width="147" height="60" rx="5"></rect>
                    <g id="Charactrer/Captain-Icon/Charactrer/FirstMate/Small" transform="translate(8.000000, 8.000000)">
                        <circle id="Oval" fill="#FFFFFF" cx="20" cy="20" r="19"></circle>
                        <g id="Group-9">
                            <path d="M20,38 C10.075,38 2,29.925 2,20 C2,10.075 10.075,2 20,2 C29.925,2 38,10.075 38,20 C38,29.925 29.925,38 20,38 M20,0 C8.972,0 0,8.972 0,20 C0,31.028 8.972,40 20,40 C31.028,40 40,31.028 40,20 C40,8.972 31.028,0 20,0" id="Fill-1" fill="#A7A2C1"></path>
                            <path d="M31.9707,23.9277 C31.9337,23.9757 31.8997,24.0257 31.8677,24.0757 L30.7707,22.9907 C31.1677,22.0337 31.4307,21.0417 31.5607,20.0237 C32.1167,20.6967 32.5937,21.5967 32.5247,22.6707 C32.5207,22.7337 32.5167,22.7317 32.5247,22.7937 C32.5247,22.7977 32.5127,23.2187 31.9707,23.9277 L31.9707,23.9277 Z M28.4927,26.0497 C28.4927,26.4547 28.1627,26.7837 27.7587,26.7837 L25.0147,26.7837 C24.4627,26.7837 24.0147,27.2317 24.0147,27.7837 L24.0147,30.2047 C24.0147,30.7277 23.5897,31.1527 23.0677,31.1527 L16.6947,31.1527 C16.1727,31.1527 15.7477,30.7277 15.7477,30.2047 L15.7477,27.7837 C15.7477,27.2317 15.2997,26.7837 14.7477,26.7837 L12.0037,26.7837 C11.5987,26.7837 11.2697,26.4547 11.2697,26.0497 L11.2697,23.2027 C11.2697,23.0517 11.2357,22.9027 11.1687,22.7657 C10.5207,21.4317 10.1917,20.0087 10.1917,18.5367 C10.1917,18.3417 10.2097,18.1517 10.2207,17.9587 L29.5417,17.9587 C29.5527,18.1517 29.5707,18.3417 29.5707,18.5367 C29.5707,20.0087 29.2417,21.4317 28.5937,22.7657 C28.5267,22.9027 28.4927,23.0517 28.4927,23.2027 L28.4927,26.0497 Z M19.8817,8.8477 C22.8077,8.8477 25.4287,10.1567 27.2077,12.2147 C25.1947,11.4257 22.6377,10.9657 19.8817,10.9657 C17.1257,10.9657 14.5677,11.4257 12.5547,12.2147 C14.3327,10.1567 16.9547,8.8477 19.8817,8.8477 L19.8817,8.8477 Z M10.5807,15.8417 C11.6497,14.3927 15.1197,12.9657 19.8817,12.9657 C24.6427,12.9657 28.1127,14.3937 29.1817,15.8417 C29.1927,15.8807 29.2007,15.9197 29.2117,15.9587 L10.5507,15.9587 C10.5607,15.9197 10.5697,15.8807 10.5807,15.8417 L10.5807,15.8417 Z M34.5237,22.7417 C34.6777,19.8807 32.4717,17.9697 31.4987,17.2697 C31.4847,17.1367 31.4577,17.0087 31.4387,16.8767 C31.4367,16.8557 31.4467,16.8337 31.4437,16.8127 C31.4217,16.6677 31.3897,16.5247 31.3627,16.3797 C31.3447,16.2837 31.3297,16.1887 31.3097,16.0937 C31.2407,15.7697 31.1617,15.4487 31.0657,15.1327 C31.0637,15.1267 31.0587,15.1207 31.0567,15.1147 C29.5907,10.3347 25.1367,6.8477 19.8817,6.8477 C14.6257,6.8477 10.1717,10.3337 8.7047,15.1147 C8.7027,15.1217 8.6987,15.1267 8.6967,15.1337 C8.6017,15.4477 8.5227,15.7667 8.4537,16.0877 C8.4327,16.1857 8.4167,16.2857 8.3987,16.3857 C8.3717,16.5277 8.3407,16.6687 8.3187,16.8117 C8.3157,16.8337 8.3247,16.8547 8.3237,16.8767 C8.2457,17.4207 8.1917,17.9727 8.1917,18.5367 C8.1917,20.2367 8.5537,21.8807 9.2697,23.4277 L9.2697,26.0497 C9.2697,27.5577 10.4957,28.7837 12.0037,28.7837 L13.7477,28.7837 L13.7477,30.2047 C13.7477,31.8297 15.0697,33.1527 16.6947,33.1527 L23.0677,33.1527 C24.6927,33.1527 26.0147,31.8297 26.0147,30.2047 L26.0147,28.7837 L27.7587,28.7837 C29.2657,28.7837 30.4927,27.5577 30.4927,26.0497 L30.4927,25.5287 L31.8817,26.9017 C32.0727,27.0907 32.3257,27.1907 32.5847,27.1907 C32.7147,27.1907 32.8457,27.1647 32.9697,27.1137 C33.3427,26.9577 33.5847,26.5937 33.5847,26.1907 L33.5607,25.1407 C34.4477,23.9807 34.5327,23.0917 34.5237,22.7417 L34.5237,22.7417 Z" id="Fill-3" fill="#463B83"></path>
                            <path d="M16.3125,23.8213 C15.6255,23.8213 15.0675,23.2623 15.0675,22.5763 C15.0675,21.8893 15.6255,21.3313 16.3125,21.3313 C16.9995,21.3313 17.5575,21.8893 17.5575,22.5763 C17.5575,23.2623 16.9995,23.8213 16.3125,23.8213 M16.3125,19.3313 C14.5225,19.3313 13.0675,20.7873 13.0675,22.5763 C13.0675,24.3653 14.5225,25.8213 16.3125,25.8213 C18.1025,25.8213 19.5575,24.3653 19.5575,22.5763 C19.5575,20.7873 18.1025,19.3313 16.3125,19.3313" id="Fill-5" fill="#463B83"></path>
                            <path d="M23.4497,23.8213 C22.7627,23.8213 22.2047,23.2623 22.2047,22.5763 C22.2047,21.8893 22.7627,21.3313 23.4497,21.3313 C24.1367,21.3313 24.6947,21.8893 24.6947,22.5763 C24.6947,23.2623 24.1367,23.8213 23.4497,23.8213 M23.4497,19.3313 C21.6607,19.3313 20.2047,20.7873 20.2047,22.5763 C20.2047,24.3653 21.6607,25.8213 23.4497,25.8213 C25.2397,25.8213 26.6947,24.3653 26.6947,22.5763 C26.6947,20.7873 25.2397,19.3313 23.4497,19.3313" id="Fill-7" fill="#463B83"></path>
                        </g>
                        <g id="Icon/Badge" transform="translate(-2.000000, -2.000000)">
                            <g id="Badge" transform="translate(0.000000, -1.000000)">
                                <circle id="Oval" fill="#56DF4D" cx="7.5" cy="8.5" r="7.5"></circle>
                                <text id="2" font-family="Bitter-Bold, Bitter" font-size="11" font-weight="bold" fill="#322931">
                                    <tspan x="3.43" y="12">X</tspan>
                                </text>
                            </g>
                        </g>
                    </g>
                    <text id="First-Mate" font-family="Bitter-Regular, Bitter" font-size="16" font-weight="normal" fill="#FFFFFF">
                        <tspan x="56" y="23">First</tspan>
                        <tspan x="56" y="42">Mate</tspan>
                    </text>
                </g>
                <g id="Characrer-Container-4" transform="translate(179.000000, 125.384097)">
                    <rect id="Rectangle" stroke="#E3E0E6" x="0" y="0" width="147" height="68" rx="5"></rect>
                    <g id="Charactrer/Captain-Icon/Charactrer/Mutineer/Small" transform="translate(8.000000, 8.000000)">
                        <circle id="Oval" fill="#FFFFFF" cx="20" cy="20" r="19"></circle>
                        <g id="Group-7">
                            <path d="M20,2 C10.075,2 2,10.075 2,20 C2,29.925 10.075,38 20,38 C29.925,38 38,29.925 38,20 C38,10.075 29.925,2 20,2 M20,40 C8.972,40 0,31.028 0,20 C0,8.972 8.972,0 20,0 C31.028,0 40,8.972 40,20 C40,31.028 31.028,40 20,40" id="Fill-1" fill="#A7A2C1"></path>
                            <path d="M28.0669,18.3965 C27.5059,18.0405 26.6559,17.6225 25.7499,17.6225 C25.2499,17.6225 24.8269,17.9915 24.7589,18.4855 C24.7379,18.6395 24.5999,19.7635 24.9389,20.8325 C24.1029,21.4815 21.9829,22.8445 17.5229,24.2835 L16.7589,23.0685 C18.3459,21.8925 21.9039,19.0225 23.7839,15.6725 C25.5879,16.1585 28.2939,16.3555 30.6459,15.1855 C30.1449,16.2155 29.3449,17.3765 28.0669,18.3965 M32.8109,11.4395 C32.3989,11.2905 31.9379,11.4305 31.6729,11.7825 C28.9179,15.4675 23.8529,13.6075 23.6409,13.5285 C23.1479,13.3405 22.5989,13.5635 22.3769,14.0385 C20.4409,18.1795 14.9079,21.9355 14.8529,21.9725 C14.4039,22.2745 14.2759,22.8775 14.5639,23.3345 L16.2399,26.0005 C16.4269,26.2975 16.7499,26.4685 17.0869,26.4685 C17.1849,26.4685 17.2829,26.4545 17.3799,26.4245 C24.7079,24.1775 26.7109,21.9785 26.9159,21.7345 C27.1969,21.3985 27.2279,20.9175 26.9899,20.5495 C26.8849,20.3875 26.8179,20.1765 26.7759,19.9565 C27.0649,20.1175 27.3039,20.2955 27.4139,20.3905 C27.7579,20.6925 28.2619,20.7205 28.6399,20.4605 C33.2049,17.3125 33.4639,12.6235 33.4729,12.4245 C33.4929,11.9865 33.2239,11.5865 32.8109,11.4395" id="Fill-3" fill="#463B83"></path>
                            <path d="M14.0571,27.4668 C13.9581,27.8778 13.7051,28.2268 13.3441,28.4468 C12.9831,28.6678 12.5581,28.7358 12.1471,28.6358 C11.7361,28.5368 11.3881,28.2838 11.1671,27.9228 L10.7011,27.1598 L13.3451,25.4148 L13.8681,26.2698 C14.0891,26.6308 14.1561,27.0558 14.0571,27.4668 L14.0571,27.4668 Z M13.5401,22.7908 L14.0511,21.3118 C14.1891,20.9098 13.9761,20.4738 13.5751,20.3348 C13.1751,20.1968 12.7371,20.4098 12.5991,20.8108 L11.9701,22.6328 C11.8951,22.8498 11.9211,23.0878 12.0411,23.2838 L12.5431,24.1048 L10.1481,25.6848 C9.9131,25.4668 9.6101,25.3178 9.2671,25.2788 C8.4101,25.1798 7.6351,25.7948 7.5361,26.6528 C7.4381,27.5098 8.0531,28.2838 8.9111,28.3828 C9.1521,28.4098 9.3861,28.3798 9.6001,28.3048 L9.8571,28.7248 C10.2921,29.4358 10.9771,29.9348 11.7871,30.1288 C11.9141,30.1588 12.0411,30.1818 12.1681,30.1958 C12.8561,30.2758 13.5461,30.1238 14.1451,29.7568 C14.8561,29.3218 15.3551,28.6368 15.5501,27.8258 C15.7451,27.0168 15.6131,26.1788 15.1781,25.4688 L13.5401,22.7908 Z" id="Fill-5" fill="#463B83"></path>
                        </g>
                        <g id="Icon/Badge" transform="translate(-2.000000, -2.000000)">
                            <g id="Badge" transform="translate(0.000000, -1.000000)">
                                <circle id="Oval" fill="#56DF4D" cx="7.5" cy="8.5" r="7.5"></circle>
                                <text id="2" font-family="Bitter-Bold, Bitter" font-size="11" font-weight="bold" fill="#322931">
                                    <tspan x="3.43" y="12">X</tspan>
                                </text>
                            </g>
                        </g>
                    </g>
                    <text id="Mutineer" font-family="Bitter-Regular, Bitter" font-size="16" font-weight="normal" fill="#FFFFFF">
                        <tspan x="56" y="23">Mutineer</tspan>
                    </text>
                    <text id="Cannot-call-stop" font-family="Bitter-Regular, Bitter" font-size="12" font-weight="normal" fill="#FFFFFF">
                        <tspan x="56" y="40">Cannot call </tspan>
                        <tspan x="56" y="54">stop</tspan>
                    </text>
                </g>
                <g id="Characrer-Container-3" transform="translate(0.000000, 125.384097)">
                    <rect id="Rectangle" stroke="#E3E0E6" x="0" y="0" width="147" height="60" rx="5"></rect>
                    <g id="Charactrer/Captain-Icon/Charactrer/Captain/Small" transform="translate(8.000000, 8.000000)">
                        <circle id="Oval" fill="#FFFFFF" cx="20" cy="20" r="19"></circle>
                        <g id="Group-7">
                            <path d="M20,38 C10.075,38 2,29.925 2,20 C2,10.075 10.075,2 20,2 C29.925,2 38,10.075 38,20 C38,29.925 29.925,38 20,38 M20,0 C8.972,0 0,8.972 0,20 C0,31.028 8.972,40 20,40 C31.028,40 40,31.028 40,20 C40,8.972 31.028,0 20,0" id="Fill-1" fill="#56DF4D"></path>
                            <path d="M29.7573,26.7754 C29.2863,26.8664 28.4963,26.8434 27.0293,25.6344 C26.8843,25.5154 26.7413,25.4094 26.5983,25.2994 C26.5543,25.2514 26.5263,25.1904 26.4733,25.1514 C23.2473,22.7684 20.3643,22.7054 20.0693,22.7054 L20.0573,22.7054 L20.0383,22.7054 L20.0143,22.7054 C19.8623,22.7044 16.5453,22.6884 12.9703,25.6344 C11.5033,26.8444 10.7143,26.8674 10.2423,26.7754 C9.1873,26.5744 8.0223,25.3034 6.5923,22.7914 C7.9303,22.1334 9.9083,20.8774 10.8623,18.8664 C12.1503,16.1534 14.2433,12.7704 16.1103,11.6814 C16.9673,12.9864 18.4173,13.7794 20.0003,13.7794 C21.5833,13.7794 23.0323,12.9864 23.8903,11.6804 C25.7543,12.7664 27.8483,16.1524 29.1363,18.8664 C30.0913,20.8774 32.0693,22.1334 33.4073,22.7904 C31.9773,25.3034 30.8123,26.5744 29.7573,26.7754 M20.0633,26.8054 C18.2653,26.8054 16.5293,27.2004 15.1203,27.9124 L15.1203,26.5614 C17.7093,24.7594 19.9273,24.7074 20.0383,24.7064 C20.2893,24.7124 22.4093,24.8284 24.8793,26.5214 L24.8793,27.8454 C23.4943,27.1704 21.8293,26.8054 20.0633,26.8054 M35.5033,22.0934 C35.3643,21.6814 35.0573,21.3444 34.6613,21.1694 C33.8163,20.7944 31.7633,19.7354 30.9433,18.0084 C30.1643,16.3654 27.3773,10.9044 24.2433,9.6294 C23.5313,9.3414 22.7203,9.6434 22.3633,10.3354 C21.9033,11.2254 20.9983,11.7794 20.0003,11.7794 C19.0013,11.7794 18.0953,11.2254 17.6373,10.3374 C17.2813,9.6424 16.4713,9.3394 15.7513,9.6314 C12.6243,10.9044 9.8363,16.3654 9.0563,18.0084 C8.2363,19.7354 6.1833,20.7944 5.3403,21.1694 C4.9433,21.3444 4.6353,21.6814 4.4963,22.0924 C4.3573,22.5044 4.3983,22.9604 4.6083,23.3404 C6.5053,26.7834 8.0773,28.3984 9.8663,28.7404 C10.1023,28.7854 10.3393,28.8074 10.5763,28.8074 C11.3923,28.8074 12.2283,28.5264 13.1203,27.9774 L13.1203,29.2044 C13.1203,29.6894 13.3893,30.1264 13.8223,30.3424 C14.0053,30.4344 14.2013,30.4794 14.3973,30.4794 C14.6683,30.4794 14.9363,30.3934 15.1643,30.2234 C16.3723,29.3224 18.1583,28.8054 20.0633,28.8054 C21.9083,28.8054 23.6573,29.2964 24.8623,30.1504 C25.2553,30.4294 25.7643,30.4644 26.1913,30.2434 C26.6153,30.0234 26.8793,29.5894 26.8793,29.1114 L26.8793,27.9874 C28.0343,28.6984 29.0913,28.9404 30.1323,28.7404 C31.9223,28.3984 33.4943,26.7834 35.3913,23.3404 C35.6013,22.9604 35.6423,22.5054 35.5033,22.0934" id="Fill-3" fill="#463B83"></path>
                            <path d="M22.769,15.7783 C22.378,15.3873 21.746,15.3873 21.355,15.7783 L20,17.1323 L18.645,15.7783 C18.254,15.3873 17.622,15.3873 17.231,15.7783 C16.84,16.1693 16.84,16.8013 17.231,17.1923 L18.586,18.5473 L17.231,19.9023 C16.84,20.2933 16.84,20.9253 17.231,21.3163 C17.426,21.5113 17.682,21.6093 17.938,21.6093 C18.194,21.6093 18.45,21.5113 18.645,21.3163 L20,19.9613 L21.355,21.3163 C21.55,21.5113 21.806,21.6093 22.062,21.6093 C22.318,21.6093 22.574,21.5113 22.769,21.3163 C23.16,20.9253 23.16,20.2933 22.769,19.9023 L21.414,18.5473 L22.769,17.1923 C23.16,16.8013 23.16,16.1693 22.769,15.7783" id="Fill-5" fill="#463B83"></path>
                        </g>
                        <g id="Icon/Badge" transform="translate(-2.000000, -2.000000)">
                            <g id="Badge" transform="translate(0.000000, -1.000000)">
                                <circle id="Oval" fill="#56DF4D" cx="7.5" cy="8.5" r="7.5"></circle>
                                <text id="2" font-family="Bitter-Bold, Bitter" font-size="11" font-weight="bold" fill="#322931">
                                    <tspan x="3.43" y="12">X</tspan>
                                </text>
                            </g>
                        </g>
                    </g>
                    <text id="The-Captain" font-family="Bitter-Regular, Bitter" font-size="16" font-weight="normal" fill="#FFFFFF">
                        <tspan x="56" y="23">The</tspan>
                        <tspan x="56" y="42">Captain</tspan>
                    </text>
                </g>
                <g id="Characrer-Container-2" transform="translate(180.000000, 41.000000)">
                    <rect id="Rectangle" stroke="#E3E0E6" x="0" y="0" width="147" height="60" rx="5"></rect>
                    <g id="Charactrer/Captain-Icon/Charactrer/SeaWitch/Small" transform="translate(8.000000, 8.000000)">
                        <circle id="Oval" fill="#FFFFFF" cx="20" cy="20" r="19"></circle>
                        <g id="Group-5">
                            <path d="M20,2 C10.075,2 2,10.075 2,20 C2,29.925 10.075,38 20,38 C29.925,38 38,29.925 38,20 C38,10.075 29.925,2 20,2 M20,40 C8.972,40 0,31.028 0,20 C0,8.972 8.972,0 20,0 C31.028,0 40,8.972 40,20 C40,31.028 31.028,40 20,40" id="Fill-1" fill="#56DF4D"></path>
                            <path d="M18.2368,27.2529 C18.7108,26.6699 19.3668,25.5129 19.7778,24.1309 C20.1888,25.5129 20.8438,26.6699 21.3188,27.2529 C21.4038,27.3569 21.5058,27.4359 21.5988,27.5279 C21.0498,27.6379 20.4548,27.7409 19.7778,27.8279 C19.1048,27.7409 18.5118,27.6399 17.9658,27.5299 C18.0568,27.4399 18.1538,27.3559 18.2368,27.2529 L18.2368,27.2529 Z M19.9648,12.7239 L20.5738,18.0779 C20.2238,18.5169 19.9638,18.9819 19.7778,19.4639 C19.5958,18.9939 19.3438,18.5379 19.0068,18.1089 L19.9648,12.7239 Z M27.9248,18.7069 C27.3928,17.0459 25.3168,12.4849 25.2278,12.2919 C24.9988,11.7889 24.4078,11.5659 23.9038,11.7969 C23.4008,12.0259 23.1788,12.6189 23.4088,13.1219 C23.4298,13.1679 25.5238,17.7669 26.0198,19.3159 C26.2178,19.9369 26.1248,20.1599 24.8018,20.7659 C24.5488,20.8819 24.3558,21.0989 24.2688,21.3629 C24.1818,21.6289 24.2098,21.9179 24.3448,22.1619 C25.2558,23.7979 25.9008,26.0359 25.3358,26.3609 C24.4568,26.8689 23.4638,26.7209 22.8698,25.9909 C22.4628,25.4899 20.1438,21.3979 22.3408,19.0929 C22.5458,18.8779 22.6438,18.5839 22.6108,18.2889 L21.1758,5.6779 C21.1198,5.1849 20.7108,4.8069 20.2138,4.7919 C19.7568,4.7449 19.2848,5.1269 19.1978,5.6159 L16.9538,18.2279 C16.8978,18.5409 16.9948,18.8619 17.2148,19.0929 C19.4118,21.3979 17.0928,25.4899 16.6848,25.9909 C16.0928,26.7209 15.1028,26.8709 14.2188,26.3609 C13.6538,26.0359 14.2998,23.7979 15.2108,22.1619 C15.3458,21.9179 15.3738,21.6279 15.2868,21.3629 C15.1998,21.0989 15.0058,20.8809 14.7518,20.7649 C13.4308,20.1599 13.3368,19.9369 13.5348,19.3159 C14.0308,17.7679 16.1258,13.1679 16.1468,13.1219 C16.3768,12.6189 16.1548,12.0259 15.6528,11.7969 C15.1478,11.5659 14.5568,11.7889 14.3278,12.2919 C14.2388,12.4849 12.1628,17.0459 11.6308,18.7069 C11.0458,20.5349 12.0358,21.5309 12.9938,22.1109 C12.2238,23.7709 11.1468,26.8849 13.2098,28.0859 C13.2118,28.0869 13.2128,28.0889 13.2138,28.0899 C13.2148,28.0899 13.2188,28.0929 13.2198,28.0929 C13.2198,28.0939 13.2198,28.0939 13.2208,28.0939 C13.2208,28.0939 13.2218,28.0949 13.2228,28.0949 C13.3318,28.1589 15.0908,29.1339 18.7778,29.6989 L18.7778,34.8909 C18.7778,35.4429 19.2258,35.8909 19.7778,35.8909 C20.3298,35.8909 20.7778,35.4429 20.7778,34.8909 L20.7778,29.6989 C23.3948,29.2979 25.0408,28.6949 25.8078,28.3519 C25.8238,28.3449 25.8398,28.3379 25.8558,28.3309 C26.1418,28.2009 26.2998,28.1129 26.3308,28.0959 C26.3318,28.0949 26.3338,28.0949 26.3348,28.0939 C26.3348,28.0939 26.3358,28.0929 26.3358,28.0929 C26.3368,28.0929 26.3408,28.0899 26.3408,28.0899 C26.3428,28.0889 26.3438,28.0869 26.3458,28.0859 C28.4088,26.8849 27.3318,23.7709 26.5608,22.1099 C27.5198,21.5309 28.5098,20.5349 27.9248,18.7069 L27.9248,18.7069 Z" id="Fill-3" fill="#463B83"></path>
                        </g>
                        <g id="Icon/Badge" transform="translate(-2.000000, -2.000000)">
                            <g id="Badge" transform="translate(0.000000, -1.000000)">
                                <circle id="Oval" fill="#56DF4D" cx="7.5" cy="8.5" r="7.5"></circle>
                                <text id="2" font-family="Bitter-Bold, Bitter" font-size="11" font-weight="bold" fill="#322931">
                                    <tspan x="3.43" y="12">X</tspan>
                                </text>
                            </g>
                        </g>
                    </g>
                    <text id="The-Sea-Witch" font-family="Bitter-Regular, Bitter" font-size="16" font-weight="normal" fill="#FFFFFF">
                        <tspan x="56" y="23">The Sea </tspan>
                        <tspan x="56" y="42">Witch</tspan>
                    </text>
                </g>
                <g id="Characrer-Container-1" transform="translate(0.000000, 41.000000)">
                    <rect id="Rectangle" stroke="#E3E0E6" x="0" y="0" width="147" height="60" rx="5"></rect>
                    <g id="Charactrer/Captain-Icon/Charactrer/Navigator/Small" transform="translate(8.054795, 8.000000)">
                        <circle id="Oval" fill="#FFFFFF" cx="20" cy="20" r="19"></circle>
                        <g id="Group-5">
                            <path d="M20,2 C10.075,2 2,10.075 2,20 C2,29.925 10.075,38 20,38 C29.925,38 38,29.925 38,20 C38,10.075 29.925,2 20,2 M20,40 C8.972,40 0,31.028 0,20 C0,8.972 8.972,0 20,0 C31.028,0 40,8.972 40,20 C40,31.028 31.028,40 20,40" id="Fill-1" fill="#A7A2C1"></path>
                            <path d="M30.4502,15.1279 L24.8722,9.5499 L25.2292,9.1919 L30.8072,14.7709 L30.4502,15.1279 Z M22.4942,21.6109 L22.4452,21.5629 C22.4452,21.5619 22.4452,21.5609 22.4442,21.5609 L18.4392,17.5559 L18.3882,17.5049 L24.1942,11.6999 L26.2462,13.7529 L28.3002,15.8059 L22.4942,21.6109 Z M17.2352,25.3569 L17.1372,25.2579 C17.1362,25.2579 17.1362,25.2569 17.1362,25.2569 L15.9392,24.0609 L14.6442,22.7649 L17.7322,19.6769 L20.3232,22.2679 L17.2352,25.3569 Z M12.8572,28.1219 L12.3672,27.6329 L11.8782,27.1429 L14.0362,24.9849 L14.5252,25.4749 L15.0142,25.9639 L12.8572,28.1219 Z M11.7832,30.8089 L9.1922,28.2169 L9.6582,27.7509 L10.9532,29.0469 L12.1502,30.2429 C12.1502,30.2429 12.1512,30.2439 12.1512,30.2439 L12.2492,30.3419 L11.7832,30.8089 Z M32.9292,14.0639 L25.9362,7.0709 C25.5462,6.6809 24.9132,6.6809 24.5222,7.0709 L22.7502,8.8429 C22.5632,9.0299 22.4572,9.2839 22.4572,9.5499 C22.4572,9.8159 22.5632,10.0689 22.7502,10.2569 L22.7802,10.2859 L16.2672,16.7979 C15.8772,17.1889 15.8772,17.8209 16.2672,18.2119 L16.3182,18.2629 L12.5232,22.0579 C12.1322,22.4479 12.1322,23.0809 12.5232,23.4719 L12.6222,23.5709 L10.4642,25.7289 L10.3652,25.6299 C9.9742,25.2389 9.3422,25.2389 8.9512,25.6299 L7.0712,27.5099 C6.8832,27.6969 6.7782,27.9509 6.7782,28.2169 C6.7782,28.4819 6.8832,28.7359 7.0712,28.9239 L11.0752,32.9299 C11.2632,33.1169 11.5172,33.2229 11.7832,33.2229 C12.0482,33.2229 12.3022,33.1169 12.4902,32.9299 L14.3702,31.0489 C14.7612,30.6579 14.7612,30.0249 14.3702,29.6349 L14.2712,29.5359 L16.4292,27.3779 L16.5282,27.4779 C16.7152,27.6649 16.9702,27.7709 17.2352,27.7709 C17.5002,27.7709 17.7542,27.6649 17.9422,27.4779 L21.7372,23.6819 L21.7872,23.7319 C21.9752,23.9199 22.2292,24.0249 22.4942,24.0249 C22.7602,24.0249 23.0142,23.9199 23.2012,23.7319 L29.7142,17.2199 L29.7432,17.2489 C29.9382,17.4439 30.1942,17.5419 30.4502,17.5419 C30.7062,17.5419 30.9622,17.4439 31.1572,17.2489 L32.9292,15.4779 C33.3192,15.0869 33.3192,14.4539 32.9292,14.0639 L32.9292,14.0639 Z" id="Fill-3" fill="#463B83"></path>
                        </g>
                        <g id="Icon/Badge" transform="translate(-2.000000, -2.000000)">
                            <g id="Badge" transform="translate(0.000000, -1.000000)">
                                <circle id="Oval" fill="#56DF4D" cx="7.5" cy="8.5" r="7.5"></circle>
                                <text id="2" font-family="Bitter-Bold, Bitter" font-size="11" font-weight="bold" fill="#322931">
                                    <tspan x="3.43" y="12">X</tspan>
                                </text>
                            </g>
                        </g>
                    </g>
                    <text id="The-Lookout" font-family="Bitter-Regular, Bitter" font-size="16" font-weight="normal" fill="#FFFFFF">
                        <tspan x="56.0547945" y="23">The</tspan>
                        <tspan x="56.0547945" y="42">Lookout</tspan>
                    </text>
                </g>
                <text id="The-Good-Team:" font-family="Bitter-Bold, Bitter" font-size="18" font-weight="bold" fill="#FFFFFF">
                    <tspan x="0" y="20">The Good Team:</tspan>
                </text>
                <text id="The-Evil-Team:" font-family="Bitter-Bold, Bitter" font-size="18" font-weight="bold" fill="#FFFFFF">
                    <tspan x="179" y="20">The Evil Team:</tspan>
                </text>
                <path id="Arrow-4" d="M195.397146,200.56109 L195.450799,200.638966 L199.950799,208.638966 C200.086181,208.879645 200.000821,209.184503 199.760142,209.319885 C199.546205,209.440224 199.281559,209.38615 199.130307,209.203612 L199.079224,209.129228 L195.515,202.792 L195.515012,230.384097 C195.515012,230.629557 195.338136,230.833705 195.104887,230.876041 L195.015012,230.884097 L147,230.884097 C146.723858,230.884097 146.5,230.660239 146.5,230.384097 C146.5,230.138637 146.676875,229.934489 146.910124,229.892153 L147,229.884097 L194.515,229.884 L194.515,202.792 L190.950799,209.129228 C190.83046,209.343165 190.576214,209.43438 190.352164,209.356926 L190.269881,209.319885 C190.055944,209.199545 189.964728,208.945299 190.042182,208.721249 L190.079224,208.638966 L194.579224,200.638966 C194.754446,200.327459 195.180172,200.301501 195.397146,200.56109 Z" fill="#FFFFFF" fill-rule="nonzero"></path>
                <path id="Arrow-1" d="M162.935788,66.2548694 C163.056127,66.4688062 163.002053,66.7334521 162.819515,66.8847041 L162.745131,66.9357878 L156.408,70.5 L180,70.5 C180.276142,70.5 180.5,70.7238576 180.5,71 C180.5,71.2454599 180.323125,71.4496084 180.089876,71.4919443 L180,71.5 L156.408,71.5 L162.745131,75.0642122 C162.959067,75.1845517 163.050283,75.4387979 162.972829,75.6628478 L162.935788,75.7451306 C162.815448,75.9590675 162.561202,76.0502832 162.337152,75.9728292 L162.254869,75.9357878 L154.254869,71.4357878 C153.943362,71.2605651 153.917403,70.8348392 154.176993,70.617866 L154.254869,70.5642122 L162.254869,66.0642122 C162.495548,65.9288303 162.800406,66.0141904 162.935788,66.2548694 Z" fill="#FFFFFF" fill-rule="nonzero"></path>
                <path id="Arrow-2" d="M73.5,100.884097 C73.7454599,100.884097 73.9496084,101.060972 73.9919443,101.294221 L74,101.384097 L74,114.975 L77.5642122,108.638966 C77.6995941,108.398288 78.0044517,108.312927 78.2451306,108.448309 C78.4590675,108.568649 78.5502832,108.822895 78.4728292,109.046945 L78.4357878,109.129228 L73.9357878,117.129228 C73.7605651,117.440735 73.3348392,117.466694 73.117866,117.207104 L73.0642122,117.129228 L68.5642122,109.129228 C68.4288303,108.888549 68.5141904,108.583691 68.7548694,108.448309 C68.9688062,108.32797 69.2334521,108.382044 69.3847041,108.564582 L69.4357878,108.638966 L73,114.975 L73,101.384097 C73,101.107955 73.2238576,100.884097 73.5,100.884097 Z" fill="#FFFFFF" fill-rule="nonzero"></path>
                <path id="Arrow-3" d="M154.935788,150.638966 C155.056127,150.852903 155.002053,151.117549 154.819515,151.268801 L154.745131,151.319885 L148.408,154.884 L171,154.884097 C171.276142,154.884097 171.5,155.107955 171.5,155.384097 C171.5,155.629557 171.323125,155.833705 171.089876,155.876041 L171,155.884097 L148.408,155.884 L154.745131,159.448309 C154.959067,159.568649 155.050283,159.822895 154.972829,160.046945 L154.935788,160.129228 C154.815448,160.343165 154.561202,160.43438 154.337152,160.356926 L154.254869,160.319885 L146.254869,155.819885 C145.943362,155.644662 145.917403,155.218936 146.176993,155.001963 L146.254869,154.948309 L154.254869,150.448309 C154.495548,150.312927 154.800406,150.398288 154.935788,150.638966 Z" fill="#FFFFFF" fill-rule="nonzero"></path>
            </g>
        </g>
    </g>
</svg>