<svg id="Layer_1" data-name="Layer 1" xmlns="http://www.w3.org/2000/svg" viewBox="0 0 819.78 314.14"><title>Artboard 2</title><path d="M86.45,164.53q-1.92-3.17-3.26-5.08-5.18-7.08-10.74-9.2a21.93,21.93,0,0,0-7.28-1.15,14.93,14.93,0,0,0-10.54,4.12,13.27,13.27,0,0,0-4.41,10.07q0,10.74,14.57,15.91l33.92,11.88a4,4,0,0,0,.77.29,5.93,5.93,0,0,1,1.15.48L117.31,171l3.45,2.69-15.53,19.55q21.85,8.43,21.85,29.13,0,18.8-17.44,32.2l-25.3,19.36q-16.31-13.61-28.95-18L29.33,288.64q-8.25,10.55-15.53,10.55-6.71,0-10.35-4.61Q0,290.37,0,283.66q0-11.31,17.44-29.52,11.11-12.07,35.46-12.07a58.91,58.91,0,0,1,7.29.57L75.9,222.9q-21.84-6.33-33.35-14.19Q31.63,201,31.63,182.65A64.66,64.66,0,0,1,34.12,165h4.21c-.12,2.69-.22,4.76-.28,6.23s-.1,2.33-.1,2.59Q38,189,50.22,196.06a109,109,0,0,0,15,7.19,187.89,187.89,0,0,0,20.89,6.81l4.79-5.95q-24.72-6.9-36.61-13.22-11.88-6.7-11.88-22,0-12.09,10.54-20.13a35.68,35.68,0,0,1,22.24-7.48q18.39,0,28,14.76l4.79-3.64,2.88,3.64L90.85,172.1C89.19,169.17,87.72,166.64,86.45,164.53ZM17.63,262.19q-13,9.21-13,21.47,0,11.11,9,11.12,4.79,0,10.35-6.9l26.83-33.36a40.27,40.27,0,0,0-8.43-1Q29.33,253.57,17.63,262.19Zm85.68-9.49q4.41-3.73,10-8.91,5-5.55,5-14.76,0-15.72-22.61-23.19l-4.8,5.75a86.79,86.79,0,0,1,8.63,3,42.93,42.93,0,0,1,5.37,2.59q6.51,4.22,6.51,12.46,0,5.74-5,11.69L103,244.65q-2.4,2.4-6.23,6l-2.88-3.26q8.06-6.51,8-10.92t-8.62-7.86q-3.27-1-6.43-2.11c-2.1-.77-4.25-1.47-6.42-2.11L65.36,243.6q14.76,3.06,30.29,15.33Q98.9,256.44,103.31,252.7Z"/><path d="M147.59,254V213.31c-1.28.13-2.24.2-2.88.2h-1l-4.8-.39v-4.41q21.09,0,35.85-12.46l20.31,25.31L161,244.17v10.74l8.81,5.37,17.06-11.51,2.49,3.84L161,271.2l-15.34-9.39-4.6,4.41-2.87-3.65Zm18.59-45L161,210.63V239l19.16-13Z"/><path d="M214.29,271.2q-16.68-3.65-16.67-16.68,0-9.37,8.62-17.44l11.69-10.92q-15.13-15.72-15.14-21.09,0-8.23,8.24-8.24a8.14,8.14,0,0,1,5.66,2.2,7.37,7.37,0,0,1,2.39,5.66q0,7.09-7.47,7.86l1,1.15q16.86-4.41,25.68-17.45l10.54,10.55,6.52-5,2.88,3.45L248,213.51v30.86q0,8.43,3.64,13.41l5.37-4.4,2.87,3.44-18,14.38q-7.27-7.86-7.28-17.44Zm20.32-56.74-4-3.64A53.8,53.8,0,0,1,216,217.34l13.22,14.76-3.45,3.07-5-5.56c-1.28,1.27-2.56,2.49-3.83,3.64s-2.56,2.36-3.84,3.64q-4.59,5-4.6,9.2a9.6,9.6,0,0,0,1.25,4.6,16.39,16.39,0,0,0,3.16,4.12,14.79,14.79,0,0,0,4.31,2.88,11.69,11.69,0,0,0,4.7,1.05l12.65-10.92Z"/><path d="M477.07,209.67l-5.94,5.18-2.69-3.45,17.25-15.15L496.43,206l5.94-4.79,2.87,3.26-9.58,8.62v31.82q0,9,4.41,12.27l5-4.41,2.88,3.45L490.68,271.2q-8.44-6.13-8.44-20.32v-36.8Zm-3.64-30.09-2.88-3.45,15.53-13.42,10.73,9.59,3.83-3.26,2.88,3.45L488.38,185.9l-10.93-9.77Z"/><path d="M525.37,253.57v-46h-7.86l-2.87,6.71-4-1.72,4-10.16q2.67-6.13,6.51-6.14h4.22V170.57L544,154.85l2.88,3.45-8.05,7.1v30.85H549.9l2.69-5.94,4,1.73-4.21,10.54q-2.11,5-8.44,5h-5.17V255.1l4,3.83,6.71-5.75,2.88,3.45L535,271.2l-11.31-10.35L517.51,266l-2.87-3.46Z"/><path d="M569.83,254.52V213.31c-1.27.13-2.23.2-2.87.2h-.77l-5-.39v-4.41q25.31,0,36-12.46,4.79,13.42,8.24,13.42,3.06,0,7.28-7.09l3.64,2.68Q607.21,221,599.74,221q-4,0-7.48-4-1-1.35-5-7.67l-4,1.34V252l10.16,7.1L609.9,248.2l2.49,3.64L583.44,271.2l-13.8-10-6.71,5.37L560.06,263Z"/><path d="M629.44,253.57V167.12c0-.77-.09-2.3-.28-4.6s-.55-5.43-1.06-9.39l3.65-1.15c.25,1,.6,2.59,1,4.69s1,4.83,1.63,8.15a43.63,43.63,0,0,1,11.88-18l3.07,1.92a50.74,50.74,0,0,0-3.45,5.27,37.25,37.25,0,0,0-2.11,4.31,44.72,44.72,0,0,0-1,10.93v47.34l24.34-20.89,10.55,10.16,6.13-5.18,2.87,3.26-10.15,8.82V258a15.44,15.44,0,0,1,6.13,2.11l-1.92,3.64a14.27,14.27,0,0,0-6.32-1.72,10.6,10.6,0,0,0-6.33,1.92c-2.3,1.4-3.45,3.13-3.45,5.17q0,2.12,7.09,10.35t7.1,12.27q0,6.14-6.14,12.84c-1,1-2.43,2.33-4.21,3.93s-4.09,3.48-6.9,5.66L659,310.88q8.25-6.9,8.24-11.5,0-2.11-5-10.55t-5-12.65q0-7.08,5.94-13.61V213.51l-4.79-4.41-15.53,13.41v31.06l4.41,4.21,4-3.45,3.06,3.45L638.65,271l-10.74-10.16-6.13,5.37-2.88-3.45Z"/><path d="M705,254V213.31c-1.28.13-2.24.2-2.87.2h-1l-4.79-.39v-4.41q21.07,0,35.84-12.46l20.32,25.31-34.12,22.61v10.74l8.82,5.37,17-11.51,2.5,3.84L718.38,271.2,703,261.81l-4.6,4.41-2.87-3.65Zm18.59-45-5.17,1.72V239l19.17-13Z"/><path d="M764.38,254.72v-41.6l-5.17-.19v-4.41c2.17.13,3.83.19,5,.19h2.11a53.12,53.12,0,0,0,23-5.36L759.21,169.8l15.9-14.18,3.07,3.26-5.94,5.37,38.91,43.31,5.94-5.36,2.69,3.45-7.86,7.28v41.4h5.17v4.41q-24,0-39.29,12.46L763,261.81l-4.79,4.41L755.18,263Zm34.12-42-5.75-5.37a76,76,0,0,1-15,4.79v40.45l10,6.32,10.74-3.64Z"/><path d="M377.19,198.65c-14.48-11.76-10.66-30.57-5.85-48.59-22.42,21.07-34.89,42.95-43.15,72.59,0,0,13-27,30-44C358.19,178.65,358.19,197.65,377.19,198.65Z"/><path d="M378.25,197.59A26.06,26.06,0,0,1,369,181.66c-1.12-6.42-.28-13.12,1-19.45.79-4,1.78-7.86,2.82-11.75a1.51,1.51,0,0,0-2.51-1.46A157.92,157.92,0,0,0,348,174.74a145.52,145.52,0,0,0-15.07,28.84,194.32,194.32,0,0,0-6.19,18.67c-.45,1.59,2,2.72,2.74,1.15a191.07,191.07,0,0,1,19.28-31.49,117.14,117.14,0,0,1,10.49-12.2l-2.56-1.06c0,7.16,3.71,14.76,9.89,18.5a23.08,23.08,0,0,0,10.61,3c1.93.11,1.92-2.89,0-3-5.31-.32-10.44-2.36-13.63-6.77a22.36,22.36,0,0,1-3.71-9.64c0-.2-.11-1-.14-1.47,0-.21,0-.42,0-.62a1.51,1.51,0,0,0-2.56-1.06c-11.67,11.71-20.78,26.14-28.43,40.73-.61,1.18-1.23,2.37-1.81,3.57l2.74,1.16a172.36,172.36,0,0,1,11.78-31.2A137.08,137.08,0,0,1,359,165.2a168.13,168.13,0,0,1,13.4-14.08l-2.51-1.46c-3.45,13-7.46,28.31-1.09,41a28.08,28.08,0,0,0,7.33,9C377.61,200.92,379.74,198.81,378.25,197.59Z"/><path d="M383.47,295.37c.07-4-.2-8.05-.4-12.07-.3-6-.58-12-.73-18.07a323.41,323.41,0,0,1,2.12-48.4c1.76-13.89,5-27.54,8.51-41.08s7.51-27,11.78-40.31c8.86-27.61,18.87-55,31.64-81.1A153,153,0,0,1,446.56,36,106.58,106.58,0,0,1,460,19.89c6-6,12.87-12.33,21-15.13,6.85-2.35,14.82-2.63,21.21,1.21s10.61,11.48,12.9,18.47c2.12,6.49,2.86,15.19-2.77,20.2C508.69,47.86,502,49.51,498.05,46c-1.72-1.51-3.47-5.39-.82-6.9L495,37.42c-.82,2.36.81,4.64,3,5.5a4.56,4.56,0,0,0,3.27.14c1.63-.58,2-1.85,2.43-3.39.94-3.44,1.71-7.31.49-10.78a9.75,9.75,0,0,0-5.57-6c-2.68-1-4.89,0-7.13,1.44a48.24,48.24,0,0,0-7.92,6.4,80.23,80.23,0,0,0-18.13,27.87c-1.67,4.21-3,8.55-4.46,12.84q-2.31,6.81-4.47,13.66c-7.87,25.18-13.36,51.17-14.57,77.57a418.72,418.72,0,0,0,.79,45.23q1.14,18.38,3.6,36.64c2.22,16.47,5.69,32.7,8.34,49.1.22,1.35.42,2.7.61,4.05.25,1.9,3.15,1.09,2.89-.8-1.9-14-5.11-27.87-7.3-41.85a520,520,0,0,1-6.1-71.25,290.68,290.68,0,0,1,2.14-43.15,303.85,303.85,0,0,1,7.41-37.09c2.53-9.67,5.5-19.22,8.67-28.7,3.11-9.29,6-18.62,11.08-27.09,4.37-7.33,10-14.37,16.9-19.45a29.2,29.2,0,0,1,3-2,6.79,6.79,0,0,1,1.88-.84c.4-.11-.05,0,0,0a4.36,4.36,0,0,1,1.93.31,6.44,6.44,0,0,1,2.94,2.78c1.81,3.15.95,7,.05,10.33-.3,1.11-.45,1.81-1.76,1.26-.81-.34-1.44-1-1.13-1.92.45-1.27-1.13-2.3-2.21-1.69-2.84,1.62-3.32,5.23-2.23,8.09a10,10,0,0,0,6.07,5.65c5.41,1.92,12.07-.32,15.85-4.45,5.25-5.73,4.93-14.5,2.79-21.47-2.27-7.42-6.45-15.11-12.78-19.81-10.28-7.64-24.89-4.75-34.68,2.25a109.8,109.8,0,0,0-25.15,25.39,140.83,140.83,0,0,0-11.24,19.55c-3.22,6.51-6.23,13.12-9.1,19.78-6.19,14.37-11.76,29-16.9,43.76q-7.57,21.75-13.93,43.91c-3.59,12.53-6.91,25.16-9.64,37.92a273.19,273.19,0,0,0-5.54,54.64c-.11,12.82.66,25.59,1.15,38.39.07,1.75.12,3.5.09,5.25a1.5,1.5,0,0,0,3,0Z"/><path d="M241.54,303a56.73,56.73,0,0,0,37.25-8A108.14,108.14,0,0,0,289,287.27a55.43,55.43,0,0,1,12.16-8l-1.82-2.36c-3.61,4.2-3.71,10-1.49,14.91,2.48,5.47,7.84,8.76,13.55,10.05,6.55,1.48,13.55.79,20-.81,6.66-1.66,12.61-4.8,18.63-8,6.34-3.37,13.36-7,20.78-5.9v-2.89c-2.48.4-5.2.94-7,2.88a5.67,5.67,0,0,0-1.15,6.26c1.25,2.37,4.42,3,6.75,3.79a35.67,35.67,0,0,0,8.89,2c9.65.67,17.88-5.35,25.76-10,4-2.37,8.16-4.59,12.75-5.52a10.83,10.83,0,0,1,3.49-.34c1.4.19,1.36,1.59,1.64,2.7a12.37,12.37,0,0,0,3.56,5.95c3.57,3.4,8.51,5.11,13.25,6.13a49.63,49.63,0,0,0,15.23.88,51.16,51.16,0,0,0,30.89-14.15l-2.5-1.46c-1.07,5.27,2.59,9.82,7,12.21,5.22,2.81,11.45,2.57,16.77,5.13,1.73.84,3.25-1.75,1.51-2.59-4.75-2.28-10-2.54-14.95-4.31-3.8-1.38-8.38-5.1-7.46-9.64a1.51,1.51,0,0,0-2.51-1.46,48.36,48.36,0,0,1-39.23,13.17,33.77,33.77,0,0,1-13.17-4,12.49,12.49,0,0,1-4.75-4.6c-1-1.88-.78-4.38-2.47-5.89s-4.32-1.11-6.41-.75a29,29,0,0,0-6.24,1.88c-8.07,3.34-14.8,9.33-23,12.28a23.87,23.87,0,0,1-15.85,0c-1.52-.47-3.05-1-4.53-1.55-1.17-.45-2.13-1.06-1.88-2.45.52-2.79,4.13-3.23,6.4-3.6,1.42-.23,1.44-2.68,0-2.89-12.72-1.84-22.89,7.17-34,11.63a50.4,50.4,0,0,1-19.12,3.77c-5.62-.07-11.87-1.44-15.78-5.79-3.49-3.88-4.91-10.6-1.25-14.84a1.51,1.51,0,0,0-1.82-2.36c-7.71,3.42-13.52,9.65-20.36,14.38a53.61,53.61,0,0,1-37.79,9c-1.91-.25-1.89,2.75,0,3Z"/><path d="M404.62,271.92l0,0,.31.24a1.88,1.88,0,0,1-.25-.24l.24.3a1.45,1.45,0,0,1-.2-.34l.15.36a1.66,1.66,0,0,1-.12-.42l0,.4a1.85,1.85,0,0,1,0-.47l0,.4a1.27,1.27,0,0,1,.11-.38l-.16.35a1.75,1.75,0,0,1,.18-.29l-.24.3a1.36,1.36,0,0,1,.24-.24l-.3.24a1.48,1.48,0,0,1,.34-.21l-.36.16a1.66,1.66,0,0,1,.42-.12l-.4.06a2.16,2.16,0,0,1,.44,0l-.4-.05a1.91,1.91,0,0,1,.41.11l-.35-.15a1.69,1.69,0,0,1,.29.17l-.3-.23.07.06a1.11,1.11,0,0,0,.48.31,1.27,1.27,0,0,0,.58.13,1.5,1.5,0,0,0,1.5-1.5,1.52,1.52,0,0,0-.44-1.07c-.15-.12-.31-.25-.48-.36a3,3,0,0,0-.58-.26,2.79,2.79,0,0,0-.86-.16,2.89,2.89,0,0,0-.88.08,2.77,2.77,0,0,0-.82.33,2.49,2.49,0,0,0-.67.53,4.17,4.17,0,0,0-.36.47,3.79,3.79,0,0,0-.26.58,3.11,3.11,0,0,0-.16.86,3.25,3.25,0,0,0,.09.88,2.76,2.76,0,0,0,.36.87,3.14,3.14,0,0,0,.38.5,4.06,4.06,0,0,0,.51.42,1.12,1.12,0,0,0,.56.18,1,1,0,0,0,.6,0,1.47,1.47,0,0,0,.89-.69,1.5,1.5,0,0,0,.16-1.15l-.16-.36a1.61,1.61,0,0,0-.53-.54Z"/><path d="M417,264.38a1.5,1.5,0,0,0,0-3,1.5,1.5,0,0,0,0,3Z"/><path d="M432,270.84c-.21,0-.43,0-.64,0l.4,0a2.55,2.55,0,0,1-.62-.15l.36.15a2,2,0,0,1-.32-.18l.31.23a.76.76,0,0,1-.2-.2l.23.31a.82.82,0,0,1-.12-.2l.15.36,0-.13.05.4v-.15l-.05.4a.84.84,0,0,1,.05-.17l-.15.35a1.74,1.74,0,0,1,.11-.18l-.23.3a1.29,1.29,0,0,1,.16-.17l-.3.24a1.2,1.2,0,0,1,.21-.13l-.36.15.16,0-.4.05h.12l-.4-.05.09,0-.35-.15.07,0-.3-.23,0,.05-.24-.3a.21.21,0,0,1,.06.1l-.15-.36v0a1.14,1.14,0,0,0,.27.51,1.34,1.34,0,0,0,1,.57,1.22,1.22,0,0,0,.6,0,1.55,1.55,0,0,0,.9-.69,1.5,1.5,0,0,0,.15-1.15,1.89,1.89,0,0,0-.23-.5,1.76,1.76,0,0,0-1.11-.81,2,2,0,0,0-.93,0,2,2,0,0,0-.67.28,2.79,2.79,0,0,0-.78.79,1.83,1.83,0,0,0-.31.87,1.38,1.38,0,0,0,0,.35,2.12,2.12,0,0,0,.26.92,2.36,2.36,0,0,0,.35.48,1.7,1.7,0,0,0,.19.19,4.21,4.21,0,0,0,.48.35,6,6,0,0,0,.58.25,5.27,5.27,0,0,0,.95.17c.21,0,.42,0,.62,0a1.27,1.27,0,0,0,.58-.13,1.21,1.21,0,0,0,.49-.31,1.32,1.32,0,0,0,.31-.49,1.13,1.13,0,0,0,.12-.57,1.51,1.51,0,0,0-.43-1.07,1.58,1.58,0,0,0-1.07-.43Z"/><path d="M428.86,249.22l1.29.19-.36-2.75-.17.08.36-.15a4.1,4.1,0,0,1-1,.28l.4-.05a4.2,4.2,0,0,1-1.12,0l.4.06-.37-.07a1.61,1.61,0,0,0-1.16.15,1.56,1.56,0,0,0-.69.9,1.54,1.54,0,0,0,.16,1.15,1.47,1.47,0,0,0,.89.69,5.44,5.44,0,0,0,1.8.13,6.12,6.12,0,0,0,1-.18,6.35,6.35,0,0,0,1-.4l.3-.23.23-.3a1.42,1.42,0,0,0,.18-1,1.51,1.51,0,0,0-1.07-1.25l-1.29-.18a1.22,1.22,0,0,0-.6,0,1.16,1.16,0,0,0-.56.18,1.56,1.56,0,0,0-.69.9,1.59,1.59,0,0,0,.15,1.15,1.44,1.44,0,0,0,.9.69Z"/><path d="M418.84,239.91l.42-.08-.4,0a4.41,4.41,0,0,1,1.09,0l-.4,0a4.3,4.3,0,0,1,1,.27l-.36-.15.22.1-.69-1.69c0,.1-.06.2-.1.3l.15-.36a1.7,1.7,0,0,1-.26.45l.24-.31a2.22,2.22,0,0,1-.38.37l.31-.23a2.43,2.43,0,0,1-.52.3l.36-.15a2.39,2.39,0,0,1-.54.15l.4-.06a1.81,1.81,0,0,1-.52,0l.4,0a1.89,1.89,0,0,1-.41-.1,1.5,1.5,0,0,0-1.69,2.2l.23.31a1.57,1.57,0,0,0,.66.38,3.23,3.23,0,0,0,.81.16,1.7,1.7,0,0,0,.45,0,4,4,0,0,0,1.57-.46,3.41,3.41,0,0,0,1-.79,3.52,3.52,0,0,0,.75-1.43,1.54,1.54,0,0,0-.08-1,1.4,1.4,0,0,0-.61-.72,6.39,6.39,0,0,0-1-.41,6.23,6.23,0,0,0-1.05-.18,5.25,5.25,0,0,0-1.81.14,1.5,1.5,0,0,0-1.05,1.84,1.55,1.55,0,0,0,.69.9,1.59,1.59,0,0,0,1.15.15Z"/><path d="M424,217.92a5.92,5.92,0,0,1,1.25-.34l-.4,0a3.53,3.53,0,0,1,.65,0l-.4-.05a1.91,1.91,0,0,1,.41.11l-.36-.15a1.35,1.35,0,0,1,.33.19l-.3-.23a.8.8,0,0,1,.13.13l-.24-.31a.82.82,0,0,1,.12.2l-.15-.36a1.14,1.14,0,0,1,.06.25l-.05-.4a2,2,0,0,1,0,.35l.05-.4a2,2,0,0,1-.09.33l.15-.36a1,1,0,0,1-.15.25l.24-.3a.71.71,0,0,1-.15.15l.31-.24-.13.08.35-.15-.12,0,.4-.05h-.13l.4.05-.16,0,.36.15,0,0a1.56,1.56,0,0,0-1.16-.15,1.52,1.52,0,0,0-.89.68,1.51,1.51,0,0,0,.54,2.06,2.52,2.52,0,0,0,.54.21,2,2,0,0,0,.95,0,1.93,1.93,0,0,0,.52-.2,2.42,2.42,0,0,0,.45-.34,3,3,0,0,0,.35-.43,1.28,1.28,0,0,0,.11-.2,3,3,0,0,0,.31-1.17,2.4,2.4,0,0,0-.66-1.84,2.51,2.51,0,0,0-.48-.38,3,3,0,0,0-.66-.3,1.68,1.68,0,0,0-.32-.09,3.61,3.61,0,0,0-.73-.07,6,6,0,0,0-2,.42,1.67,1.67,0,0,0-.9.69,1.56,1.56,0,0,0-.15,1.16,1.5,1.5,0,0,0,.69.89,1.47,1.47,0,0,0,1.16.15Z"/><path d="M433.76,230.65a3.36,3.36,0,0,1,.32-.51l-.24.3a3.52,3.52,0,0,1,.61-.61l-.3.23a3.47,3.47,0,0,1,.79-.46l-.35.15a3.41,3.41,0,0,1,.83-.23l-.4,0h.11l-1.5-1.5a5.65,5.65,0,0,1,0,1.3l.06-.4a6,6,0,0,1-.41,1.49l.15-.36a6.1,6.1,0,0,1-.47.87,1.5,1.5,0,1,0,2.59,1.51,7,7,0,0,0,1.1-4.41,1.56,1.56,0,0,0-.44-1.06,1.46,1.46,0,0,0-1.06-.44,5,5,0,0,0-2.32.78,4.94,4.94,0,0,0-1.64,1.79,1.56,1.56,0,0,0-.15,1.16,1.47,1.47,0,0,0,.69.89,1.52,1.52,0,0,0,2.05-.53Z"/><path d="M432.84,186.53l0,0-.15-.36s0,.06,0,.09l-.05-.4V186l.05-.4a.19.19,0,0,1,0,.07l.15-.36a.33.33,0,0,1-.06.1l.24-.31a.6.6,0,0,1-.08.08l.3-.23-.16.09.36-.15a.83.83,0,0,1-.21.06l.4,0h-.2l.4,0-.18,0,.36.15a.41.41,0,0,1-.11-.07l.3.24a.52.52,0,0,1-.1-.11l.24.31a1.06,1.06,0,0,1-.12-.2l.15.36a1.09,1.09,0,0,1-.08-.31l.05.4a2.35,2.35,0,0,1,0-.53l-.05.4c.07-.53.22-1,.25-1.57a2.67,2.67,0,0,0-.74-2,1.56,1.56,0,0,0-1.06-.44,1.5,1.5,0,0,0-1.06.44,1.47,1.47,0,0,0-.44,1.06,1.54,1.54,0,0,0,.44,1.06l.09.1-.24-.3a1,1,0,0,1,.13.22l-.15-.36a1.46,1.46,0,0,1,.07.3l-.05-.4a2.54,2.54,0,0,1,0,.55l.05-.4a10.64,10.64,0,0,0-.25,1.68,2.47,2.47,0,0,0,1.13,2.14,2.25,2.25,0,0,0,2.22,0,1.93,1.93,0,0,0,.9-1.12,1.89,1.89,0,0,0-.17-1.45,1.5,1.5,0,0,0-.89-.69,1.56,1.56,0,0,0-1.16.15,1.52,1.52,0,0,0-.69.9l-.05.4a1.5,1.5,0,0,0,.2.75Z"/><path d="M425,194h.31l-.4-.05.33.09-.36-.15a1.68,1.68,0,0,1,.34.2l-.31-.24a1.72,1.72,0,0,1,.33.33l-.23-.3a2.13,2.13,0,0,1,.27.46l-.15-.36a2.64,2.64,0,0,1,.15.55l0-.4a2.46,2.46,0,0,1,0,.47l0-.4a1.64,1.64,0,0,1-.1.38l.15-.36a1.69,1.69,0,0,1-.17.29l.23-.3-.17.18a1.52,1.52,0,0,0-.44,1.06,1.54,1.54,0,0,0,.44,1.06,1.52,1.52,0,0,0,1.06.44,1.61,1.61,0,0,0,1.06-.44,2.76,2.76,0,0,0,.79-1.32,3.43,3.43,0,0,0,0-1.56,3.36,3.36,0,0,0-.47-1.14,3.48,3.48,0,0,0-1.08-1.08,2.61,2.61,0,0,0-.75-.32,3.23,3.23,0,0,0-.61-.1H425a1.64,1.64,0,0,0-1.06.44,1.52,1.52,0,0,0-.44,1.06,1.54,1.54,0,0,0,.44,1.07A1.46,1.46,0,0,0,425,194Z"/><path d="M434.05,203.15s0-.06,0-.09l-.05.4a2,2,0,0,1,.13-.5l-.15.35a2.43,2.43,0,0,1,.26-.44l-.23.3a2.33,2.33,0,0,1,.41-.42l-.3.24a2.36,2.36,0,0,1,.51-.3l-.36.15a1.88,1.88,0,0,1,.53-.14l-.4.05a2,2,0,0,1,.49,0,1,1,0,0,0,.57-.13,1.11,1.11,0,0,0,.49-.31,1.5,1.5,0,0,0,0-2.12l-.31-.23a1.42,1.42,0,0,0-.75-.21,1.77,1.77,0,0,0-.46,0,3.44,3.44,0,0,0-.78.13,4,4,0,0,0-.74.32,5.06,5.06,0,0,0-.65.46,2.27,2.27,0,0,0-.31.31,4.21,4.21,0,0,0-.47.64,3.64,3.64,0,0,0-.44,1.54,1.15,1.15,0,0,0,.13.58,1.11,1.11,0,0,0,.31.49,1.51,1.51,0,0,0,1.06.43,1.49,1.49,0,0,0,1.06-.43l.24-.31a1.51,1.51,0,0,0,.2-.76Z"/><path d="M409.71,231.67l.94.48a1.09,1.09,0,0,0,.55.18,1.22,1.22,0,0,0,.6,0,1.72,1.72,0,0,0,.9-.69l.15-.36a1.51,1.51,0,0,0,0-.79l-.15-.36a1.4,1.4,0,0,0-.54-.54l-.94-.48a1.09,1.09,0,0,0-.55-.18,1.22,1.22,0,0,0-.6,0,1.14,1.14,0,0,0-.51.27,1.21,1.21,0,0,0-.39.42L409,230a1.55,1.55,0,0,0,0,.8l.15.35a1.4,1.4,0,0,0,.54.54Z"/><path d="M408.24,253.93c0-.05,0-.1,0-.15l-.06.4a1.89,1.89,0,0,1,.1-.36l-.15.36a1.9,1.9,0,0,1,.23-.39l-.24.3a2.26,2.26,0,0,1,.35-.34l-.3.24a1.79,1.79,0,0,1,.42-.25l-.36.15a1.93,1.93,0,0,1,.47-.13l-.4.05h.41l-.4-.05a1.59,1.59,0,0,1,.39.1l-.35-.15a2.38,2.38,0,0,1,.3.18l-.31-.23a1.64,1.64,0,0,1,.3.29l-.24-.3a1.54,1.54,0,0,1,.23.39l-.15-.36a1.75,1.75,0,0,1,.14.51l-.05-.4a2.68,2.68,0,0,1,0,.49l0-.4a1.69,1.69,0,0,1-.12.44l.16-.36a1.81,1.81,0,0,1-.2.33l.24-.3-.07.08a1.61,1.61,0,0,0-.44,1.06,1.5,1.5,0,0,0,.44,1.06,1.52,1.52,0,0,0,1.06.44,1.5,1.5,0,0,0,1.06-.44,3.17,3.17,0,0,0,.83-2.19,3.38,3.38,0,0,0-.17-1,3.85,3.85,0,0,0-.66-1.17,3,3,0,0,0-2.13-1,3.35,3.35,0,0,0-3.41,3.13,1.5,1.5,0,0,0,1.5,1.5,1.59,1.59,0,0,0,1.07-.44,1.65,1.65,0,0,0,.43-1.06Z"/><path d="M414.54,208c-.1-.43-.17-.86-.23-1.3l.05.4a12.45,12.45,0,0,1-.07-3.05l-.06.4a2.22,2.22,0,0,1,.09-.37l-.15.36c0-.05.05-.1.07-.14-.16.2-.21.26-.13.18s-.36.22-.09.09l-.35.15a.79.79,0,0,1,.22-.05l-.4.05a.89.89,0,0,1,.23,0l-.4-.05a1.47,1.47,0,0,1,.3.08l-.36-.15.17.08c.22.11-.29-.28-.08-.06s-.17-.27-.08-.11l.13.24-.16-.36a2.6,2.6,0,0,1,.14.53l-.05-.39a6.16,6.16,0,0,1,0,1,1.5,1.5,0,0,0,3,0,3.79,3.79,0,0,0-.91-3,2.51,2.51,0,0,0-3.45-.11c-.84.83-.78,2.19-.75,3.29a17.65,17.65,0,0,0,.41,3.15,1.51,1.51,0,0,0,1.84,1,1.53,1.53,0,0,0,1.05-1.84Z"/><path d="M424.64,162.32l1-.78H423.5a2.73,2.73,0,0,1,.33.35l-.24-.3a2.88,2.88,0,0,1,.39.65l-.16-.36a2.64,2.64,0,0,1,.2.73l0-.4v0a1.14,1.14,0,0,0,.12.58,1.24,1.24,0,0,0,.31.48,1.11,1.11,0,0,0,.49.31,1.15,1.15,0,0,0,.58.13,1.56,1.56,0,0,0,1.06-.44l.23-.3a1.58,1.58,0,0,0,.21-.76,5.36,5.36,0,0,0-.16-.89,5.9,5.9,0,0,0-.34-.82,2.44,2.44,0,0,0-.28-.43,5.43,5.43,0,0,0-.58-.69,1.55,1.55,0,0,0-1.06-.43l-.4.05a1.57,1.57,0,0,0-.66.38l-1,.79a1.21,1.21,0,0,0-.31.48,1.46,1.46,0,0,0,0,1.16,1.37,1.37,0,0,0,.31.48,1.54,1.54,0,0,0,1.07.44l.39-.06a1.45,1.45,0,0,0,.67-.38Z"/><path d="M420.4,180.58l0-3.25-1.5,1.5,1.37-.08a1.54,1.54,0,0,0,1.06-.44,1.5,1.5,0,0,0,.44-1.06,1.47,1.47,0,0,0-.44-1.06,1.5,1.5,0,0,0-1.06-.44l-1.37.08a1.56,1.56,0,0,0-1.06.44,1.54,1.54,0,0,0-.44,1.06l0,3.25a1.61,1.61,0,0,0,.44,1.06,1.5,1.5,0,0,0,2.56-1.06Z"/><path d="M436.26,136.52a.05.05,0,0,0,0,0l.16.35a.16.16,0,0,1,0-.09l.05.4V137l-.05.39,0-.12-.15.36.07-.11-.24.31a.38.38,0,0,1,.09-.09l-.3.23A.19.19,0,0,1,436,138l-.36.15.09,0-.4,0h.09l-.39,0,.09,0-.36-.15.09.06-.3-.24.08.09-.23-.31.07.11-.16-.36a.65.65,0,0,1,0,.13l-.05-.4v.11l.05-.4a.32.32,0,0,1,0,.09l.15-.36v0a1.12,1.12,0,0,0-.18.56,1.22,1.22,0,0,0,0,.6,1.26,1.26,0,0,0,.27.51,1.18,1.18,0,0,0,.42.38l.36.15a1.55,1.55,0,0,0,.8,0l.35-.15A1.4,1.4,0,0,0,437,138v0c.05-.11.12-.26.16-.37v0a2,2,0,0,0,.07-.49,2.42,2.42,0,0,0-.06-.47.29.29,0,0,0,0-.1,2.62,2.62,0,0,0-.18-.43,3.47,3.47,0,0,0-.29-.38l-.06-.05-.33-.26-.05,0a2.3,2.3,0,0,0-.43-.18h-.05l-.41-.05h0a1.84,1.84,0,0,0-.47.06h-.07c-.12,0-.26.1-.37.16l-.08,0-.31.24,0,0,0,0a3.37,3.37,0,0,0-.29.37,2.66,2.66,0,0,0-.19.44l0,.09v0l-.06.41v.06a1.91,1.91,0,0,0,.25.93,1.13,1.13,0,0,0,.39.42,1.26,1.26,0,0,0,.51.27,1.22,1.22,0,0,0,.6,0,1.16,1.16,0,0,0,.56-.18l.3-.24a1.47,1.47,0,0,0,.39-.66l.05-.4a1.42,1.42,0,0,0-.21-.75Z"/><path d="M432.15,154.26a7.26,7.26,0,0,1,.06-.93l0,.4a6.26,6.26,0,0,1,.25-1.14c.06-.19.15-.37.2-.56-.13.45,0,.09,0,0a2.15,2.15,0,0,1,.14-.26c.09-.18.19-.34.29-.51l.17-.24.1-.14-.11.14c.13-.15.25-.3.39-.44l.09-.09c.12-.1.09-.08-.1.07l.15-.09c-.24.09-.28.12-.13.08l-.4.05a.43.43,0,0,1,.16,0l-.4-.06c.29.06-.3-.17-.11-.06-.21-.18-.28-.23-.2-.14s0,0-.14-.19c.12.19-.11-.38-.06-.14,0,.07,0,.13,0,.19l-.05-.4a2.91,2.91,0,0,1,0,.59l.05-.4a9.63,9.63,0,0,1-.49,2,1.8,1.8,0,0,0-.08.21c-.12.3.14-.32,0,0s-.14.31-.22.45a10,10,0,0,1-.52.9,1.5,1.5,0,0,0,.53,2.05,1.54,1.54,0,0,0,2.06-.54,11,11,0,0,0,1.3-2.8,10.44,10.44,0,0,0,.3-1.37,3.5,3.5,0,0,0-.06-1.67,2.19,2.19,0,0,0-1.52-1.5,2.45,2.45,0,0,0-2.3.77,7.77,7.77,0,0,0-1.62,2.39,8.75,8.75,0,0,0-.75,3.46,1.52,1.52,0,0,0,1.5,1.5,1.54,1.54,0,0,0,1.5-1.5Z"/><path d="M436.21,169.31l0,0,.36.16a2,2,0,0,1-.35-.21l.3.23a1.57,1.57,0,0,1-.31-.32l.23.31a2.67,2.67,0,0,1-.25-.43l.15.36a2.14,2.14,0,0,1-.13-.48l.05.39a3.38,3.38,0,0,1,0-.45l-.05.4a1.9,1.9,0,0,1,.11-.39l-.15.36a2,2,0,0,1,.23-.4l-.23.31a2,2,0,0,1,.32-.33l-.3.24a1.92,1.92,0,0,1,.44-.25l-.36.15a1.76,1.76,0,0,1,.45-.12l-.4.05a1.87,1.87,0,0,1,.41,0l-.4-.05h.09a1.61,1.61,0,0,0,1.16-.15,1.52,1.52,0,0,0,.69-.9,1.54,1.54,0,0,0-.15-1.15,1.45,1.45,0,0,0-.9-.69,3.49,3.49,0,0,0-1.44,0,3,3,0,0,0-.95.39,3.19,3.19,0,0,0-1.18,4.3,3,3,0,0,0,.62.84,3.41,3.41,0,0,0,1.18.72,1.47,1.47,0,0,0,1.16-.15,1.53,1.53,0,0,0,.69-.89,1.51,1.51,0,0,0-.15-1.16l-.24-.3a1.39,1.39,0,0,0-.66-.39Z"/><path d="M436.49,114a.47.47,0,0,1,.1.1l-.24-.3a1.16,1.16,0,0,1,.14.24l-.15-.36a1.46,1.46,0,0,1,.1.34l-.06-.4a1.41,1.41,0,0,1,0,.41l.06-.4a1.61,1.61,0,0,1-.1.36l.15-.36a1.56,1.56,0,0,1-.16.28l.23-.3a1.14,1.14,0,0,1-.19.19l.31-.24a.71.71,0,0,1-.22.13l.36-.15a1,1,0,0,1-.23.06l.4-.05a.74.74,0,0,1-.21,0l.39.05a.9.9,0,0,1-.22-.06l.36.15a1.23,1.23,0,0,1-.25-.14l.3.23a1.36,1.36,0,0,1-.24-.24l.24.31a1.91,1.91,0,0,1-.16-.27l.15.35a1.07,1.07,0,0,1-.07-.27l.05.4a.81.81,0,0,1,0-.22l-.05.4a1.17,1.17,0,0,1,.05-.2l-.15.36a.86.86,0,0,1,.1-.16l-.24.3,0,0a1.11,1.11,0,0,0,.31-.49,1.06,1.06,0,0,0,.13-.58,1,1,0,0,0-.13-.57,1.11,1.11,0,0,0-.31-.49,1.5,1.5,0,0,0-2.12,0,2.61,2.61,0,0,0-.36.51,2.3,2.3,0,0,0-.26,1,1.85,1.85,0,0,0,.13.87,2.48,2.48,0,0,0,.27.57,3.07,3.07,0,0,0,.39.5,2.84,2.84,0,0,0,1.08.65,2.34,2.34,0,0,0,1.26,0,2.54,2.54,0,0,0,1.09-.6,2.76,2.76,0,0,0,.37-.46,1.09,1.09,0,0,0,.14-.23,3.18,3.18,0,0,0,.23-.58,3.31,3.31,0,0,0,.1-.63,1.61,1.61,0,0,0,0-.31,3,3,0,0,0-.11-.65,2.73,2.73,0,0,0-.67-1.15,1.54,1.54,0,0,0-1.06-.44,1.22,1.22,0,0,0-.57.13,1.21,1.21,0,0,0-.49.31,1.58,1.58,0,0,0-.44,1.06,1.63,1.63,0,0,0,.44,1.07Z"/><path d="M438.41,123.18v0l.06-.4s0,0,0,.06l.15-.35s0,0,0,0l.24-.3,0,0,.3-.23-.05,0,.36-.15-.07,0,.4,0h-.11l.4,0a.33.33,0,0,1-.14,0l.35.15a.37.37,0,0,1-.12-.07l.3.24-.08-.09.24.31a.35.35,0,0,1-.05-.08l.15.36s0,0,0-.08l.06.4a.14.14,0,0,1,0-.09l-.06.4a.74.74,0,0,1,0-.14l-.15.36a.64.64,0,0,1,.08-.14l-.23.3.14-.14-.3.23a1.34,1.34,0,0,1,.31-.17l-.36.15a1.6,1.6,0,0,1,.31-.1,1.26,1.26,0,0,0,.51-.27,1.18,1.18,0,0,0,.38-.42,1.16,1.16,0,0,0,.18-.56,1.11,1.11,0,0,0,0-.6l-.16-.36a1.61,1.61,0,0,0-.53-.54l-.36-.15a1.61,1.61,0,0,0-1.1.11,3,3,0,0,0-.63.29,4.24,4.24,0,0,0-.4.31,3,3,0,0,0-.33.41.57.57,0,0,0-.08.13,2.17,2.17,0,0,0-.19.49c0,.13,0,.28-.05.41V123a1.93,1.93,0,0,0,.23.85,2.88,2.88,0,0,0,.28.38l.08.07a2.11,2.11,0,0,0,.37.28,2.57,2.57,0,0,0,.45.2l.1,0a1.93,1.93,0,0,0,.49.06h0a2.9,2.9,0,0,0,.41-.06h.05a1.67,1.67,0,0,0,.73-.42,1.28,1.28,0,0,0,.29-.37,1.79,1.79,0,0,0,.22-.85,1.14,1.14,0,0,0-.12-.58,1.21,1.21,0,0,0-.31-.48,1.11,1.11,0,0,0-.49-.31,1.06,1.06,0,0,0-.58-.13l-.39,0a1.47,1.47,0,0,0-.67.39l-.23.3a1.55,1.55,0,0,0-.21.76Z"/><path d="M448.17,90.65l-.05-.06.23.3a2,2,0,0,1-.23-.4l.15.36a2.3,2.3,0,0,1-.14-.53l.05.4a2.25,2.25,0,0,1,0-.58l-.06.39a2.64,2.64,0,0,1,.17-.61l-.15.36a2.16,2.16,0,0,1,.29-.51l-.24.31a2.06,2.06,0,0,1,.39-.39l-.31.24a1.69,1.69,0,0,1,.41-.24l-.36.15.11,0a1.63,1.63,0,0,0,.9-.69,1.59,1.59,0,0,0,.15-1.15,1.49,1.49,0,0,0-.69-.9,1.52,1.52,0,0,0-1.16-.15,3.38,3.38,0,0,0-1.48,1,3.84,3.84,0,0,0-.91,3.34,3.32,3.32,0,0,0,.8,1.57,1.5,1.5,0,0,0,2.56-1.06l-.05-.4a1.59,1.59,0,0,0-.39-.66Z"/><path d="M456.45,66.32a.79.79,0,0,1-.22-.06l.35.15a1.28,1.28,0,0,1-.25-.15l.3.24a1.36,1.36,0,0,1-.24-.24l.24.3a1.29,1.29,0,0,1-.19-.32l.15.36a1.56,1.56,0,0,1-.1-.37l.05.4a1.93,1.93,0,0,1,0-.34l-.05.4a1.38,1.38,0,0,1,.08-.29l-.15.36.06-.12a1.12,1.12,0,0,0,.18-.56,1.22,1.22,0,0,0,0-.6,1.06,1.06,0,0,0-.27-.51,1,1,0,0,0-.42-.38,1.46,1.46,0,0,0-1.15-.15,1.55,1.55,0,0,0-.9.69,2.58,2.58,0,0,0-.21.48.66.66,0,0,0-.05.15,2.69,2.69,0,0,0,.23,2,2.54,2.54,0,0,0,.16.28,4.32,4.32,0,0,0,.44.52,2.59,2.59,0,0,0,1.19.63,1,1,0,0,0,.6,0,1.09,1.09,0,0,0,.55-.18,1,1,0,0,0,.42-.38,1.06,1.06,0,0,0,.27-.51,1.51,1.51,0,0,0-.15-1.16,1.47,1.47,0,0,0-.89-.69Z"/><path d="M280.9,288.6a246.5,246.5,0,0,0,6-40c.47-7.3.92-14.6,1.26-21.9,1-20.19,1.38-40.48-.08-60.65a176.33,176.33,0,0,0-3.89-27.84c-2.18-9.24-5.82-18.31-12-25.62a34.42,34.42,0,0,0-19.12-11.76c-5.36-1.08-11.43-.88-16.33,1.79a11.11,11.11,0,0,0-4.64,4.81,43,43,0,0,0-4.68,15.29c-.55,4.84-.24,10.64,3.29,14.39,3.36,3.58,10.31,5,12.8-.34a6.64,6.64,0,0,0-.9-7l-.31,2.36c3-1.69,6.58.75,7.84,3.55,1.64,3.62-.7,7.59-3.41,9.94-5.66,4.94-14.13,4.8-20.67,1.84a29.8,29.8,0,0,1-15.21-15.68c-3.38-8.4-2.68-17.6.14-26a70.2,70.2,0,0,1,6.35-13.54,21.35,21.35,0,0,1,5.52-6,58.29,58.29,0,0,1,18.94-9.9c6.16-1.8,13.15-1.59,19.4-.33a41.23,41.23,0,0,1,15.54,6.65c9.07,6.34,15.2,16,19.73,26,4.44,9.73,7.41,20,10.36,30.28,1.79,6.26,3.81,12.45,5.47,18.75a230,230,0,0,1,5.41,27.28c1.29,9.41,2,18.89,2.6,28.37.2,3.26.39,6.47.73,9.71q1.61,15.22,3,30.47c1.11,12.47,2.17,25,2.59,37.48.07,2.24.12,4.49.11,6.74a1.5,1.5,0,0,0,3,0c.08-12.16-1-24.36-2-36.47q-1.47-17.67-3.33-35.33c-1.22-11.81-1.59-23.67-2.94-35.48a241,241,0,0,0-5-28.59c-1.77-7.4-4.1-14.63-6.2-21.93-3.11-10.77-6.18-21.58-10.76-31.84-4.73-10.63-11.24-20.83-20.81-27.7a43.45,43.45,0,0,0-16.4-7.18c-6.64-1.38-14.08-1.71-20.66.1a60.23,60.23,0,0,0-20.22,10.34,24.24,24.24,0,0,0-5.9,5.84,71.66,71.66,0,0,0-6.88,14c-3.2,8.79-4.28,18.57-1.22,27.56a32.86,32.86,0,0,0,15,17.94c6.74,3.76,14.91,4.87,22.07,1.61a16.09,16.09,0,0,0,8.52-8.79,9.75,9.75,0,0,0-2.49-10.61c-2.64-2.46-6.46-3.49-9.73-1.65a1.51,1.51,0,0,0-.3,2.35,3.53,3.53,0,0,1-1.69,5.38c-2.1.65-4.43-.66-5.86-2.12-3.18-3.28-3-8.91-2.43-13.09a38.34,38.34,0,0,1,4.77-14.15l.38-.6c.21-.3-.21.25,0,0a2.09,2.09,0,0,1,.14-.17,8.42,8.42,0,0,1,.91-.88c.29-.25,0,0,.28-.22s.39-.27.59-.39a13.18,13.18,0,0,1,1.33-.73,20.19,20.19,0,0,1,6.27-1.56,25.85,25.85,0,0,1,8.22.68A32.53,32.53,0,0,1,271,115.89c5.44,7,8.53,15.41,10.47,23.94a175.31,175.31,0,0,1,3.59,26.22c1.37,19,1.07,38.18.24,57.23-.81,18.65-1.78,37.33-5.42,55.68-.58,3-1.22,5.91-1.9,8.84-.44,1.88,2.45,2.69,2.89.8Z"/><path d="M288.48,277.63a3.51,3.51,0,0,0,1.84-1.47,7.91,7.91,0,0,0,.76-1.8l1.35-4.38a1.52,1.52,0,0,0-1.05-1.85,1.54,1.54,0,0,0-1.84,1.05l-1.2,3.89c-.09.27-.17.54-.26.81l-.12.35c-.06.15,0,.11,0-.11,0,.06-.05.12-.07.17a3.3,3.3,0,0,1-.18.32.71.71,0,0,1-.1.14c.15-.18.17-.21.07-.1l-.12.13c-.12.1-.08.07.11-.08,0,0-.58.24,0,0a1.54,1.54,0,0,0-1.05,1.85,1.52,1.52,0,0,0,1.85,1Z"/><path d="M291.2,260.27l.43-.51a1.11,1.11,0,0,0,.31-.48,1.15,1.15,0,0,0,.13-.58,1.11,1.11,0,0,0-.13-.57,1.21,1.21,0,0,0-.31-.49l-.31-.23a1.42,1.42,0,0,0-.75-.21l-.4.06a1.45,1.45,0,0,0-.66.38l-.44.51a1.11,1.11,0,0,0-.31.48,1.46,1.46,0,0,0,0,1.16,1.24,1.24,0,0,0,.31.48l.31.23a1.43,1.43,0,0,0,.76.21l.39-.06a1.45,1.45,0,0,0,.67-.38Z"/><path d="M293.93,240h0l.4.05A.77.77,0,0,1,294,240l.36.16a1.75,1.75,0,0,1-.27-.16l.3.23a1.48,1.48,0,0,1-.25-.25l.24.31a1,1,0,0,1-.18-.32l.15.36a1.21,1.21,0,0,1-.1-.36l.05.39a1.6,1.6,0,0,1,0-.31l-.06.4a1.47,1.47,0,0,1,.08-.28l-.15.36a.14.14,0,0,0,0-.06,1.12,1.12,0,0,0,.18-.56,1.07,1.07,0,0,0,0-.59,1.14,1.14,0,0,0-.27-.51,1.12,1.12,0,0,0-.42-.39,1.52,1.52,0,0,0-1.16-.15,1.49,1.49,0,0,0-.9.69,2.7,2.7,0,0,0-.31,1.34,2.9,2.9,0,0,0,1.3,2.3,2.65,2.65,0,0,0,.61.3,3.45,3.45,0,0,0,.7.13,1.27,1.27,0,0,0,.58-.13,1.21,1.21,0,0,0,.49-.31,1.32,1.32,0,0,0,.31-.49,1.11,1.11,0,0,0,.12-.57,1.49,1.49,0,0,0-.43-1.06l-.31-.24a1.51,1.51,0,0,0-.76-.2Z"/><path d="M301.16,248.12l0,0-.24.3a1,1,0,0,1,.21-.21l-.3.24a1.24,1.24,0,0,1,.27-.17l-.36.15a1.86,1.86,0,0,1,.39-.1l-.4.05a2.16,2.16,0,0,1,.44,0l-.4-.05a1.74,1.74,0,0,1,.39.11l-.36-.15a1.32,1.32,0,0,1,.33.18l-.3-.23a1.15,1.15,0,0,1,.22.22l-.23-.3a1.28,1.28,0,0,1,.15.25l-.15-.35a1.38,1.38,0,0,1,.08.29l-.06-.4a1.93,1.93,0,0,1,0,.34l.05-.4a1.4,1.4,0,0,1-.1.35l.16-.36a2.36,2.36,0,0,1-.22.38l.23-.31a1.59,1.59,0,0,1-.29.29L301,248a1.29,1.29,0,0,1-.32.19L301,248a1.68,1.68,0,0,1-.32.09l.4-.06a1.06,1.06,0,0,1-.31,0l.4.05h0a1,1,0,0,0-.6,0,1.09,1.09,0,0,0-.55.18,1.49,1.49,0,0,0-.69.89,1.51,1.51,0,0,0,.15,1.16l.23.3a1.49,1.49,0,0,0,.66.39,3.28,3.28,0,0,0,.69.06,2.78,2.78,0,0,0,.7-.12,3.28,3.28,0,0,0,1.16-.7,3.08,3.08,0,0,0,.94-2.12,2.71,2.71,0,0,0-.33-1.31,2.59,2.59,0,0,0-.88-.95,2.87,2.87,0,0,0-1.77-.51,3.19,3.19,0,0,0-1.33.34,2.82,2.82,0,0,0-1,.92,1.09,1.09,0,0,0-.18.55,1.22,1.22,0,0,0,0,.6,1.52,1.52,0,0,0,.69.9,1.54,1.54,0,0,0,1.15.15l.36-.15a1.4,1.4,0,0,0,.54-.54Z"/><path d="M301.43,265.61a5,5,0,0,1,.43-.69l-.24.31a4.67,4.67,0,0,1,.77-.77l-.3.23a4.92,4.92,0,0,1,.94-.55l-.36.15a5,5,0,0,1,.91-.26l-1.89-1.44c0,.19,0,.38,0,.57l.05-.4a4.33,4.33,0,0,1-.33,1.22l.16-.36a4.73,4.73,0,0,1-.61,1l.24-.31a3.65,3.65,0,0,1-.31.36,1.58,1.58,0,0,0-.44,1.06,1.5,1.5,0,0,0,.44,1.06,1.47,1.47,0,0,0,1.06.44,1.46,1.46,0,0,0,1.06-.44,6.25,6.25,0,0,0,1.72-4.24,1.47,1.47,0,0,0-.6-1.18,1.14,1.14,0,0,0-.51-.27,1.51,1.51,0,0,0-.79,0,5.11,5.11,0,0,0-2.18.93,5.87,5.87,0,0,0-1.77,2,1.59,1.59,0,0,0-.15,1.15,1.5,1.5,0,0,0,1.85,1.05,1.5,1.5,0,0,0,.89-.69Z"/><path d="M294,227.32l.17-.08-.36.15a1.69,1.69,0,0,1,.49-.13l-.39.05a2.62,2.62,0,0,1,.56,0l-.4-.05a2.46,2.46,0,0,1,.59.16l-.36-.15a2.43,2.43,0,0,1,.49.29l-.31-.24a1.8,1.8,0,0,1,.36.37l-.23-.31a2.38,2.38,0,0,1,.23.41l-.15-.36a2.17,2.17,0,0,1,.13.5l-.05-.4a2.71,2.71,0,0,1,0,.57l.05-.4a2.44,2.44,0,0,1-.15.59l.15-.36a2.68,2.68,0,0,1-.28.49l.23-.31a1.8,1.8,0,0,1-.36.37l.3-.24-.07.06a1.5,1.5,0,0,0-.54,2,1.5,1.5,0,0,0,.89.69,1.56,1.56,0,0,0,1.16-.15,3.33,3.33,0,0,0,.74-.66,4,4,0,0,0,.68-1.17,3.75,3.75,0,0,0,.13-2,3.27,3.27,0,0,0-.95-1.72,3.62,3.62,0,0,0-1.77-.93,3.68,3.68,0,0,0-2.5.34,1.51,1.51,0,0,0-.54,2.05,1.55,1.55,0,0,0,2.06.54Z"/><path d="M298,205.46c-.19.27.15-.16.07-.08a.81.81,0,0,0-.12.14,1.07,1.07,0,0,1-.16.14c-.1.09-.28.17.12-.08a3.28,3.28,0,0,1-.31.2l-.16.08c-.22.11.36-.14.14-.06a2.78,2.78,0,0,1-.38.12c-.16,0-.61.06-.05,0-.26,0-.51,0-.77,0s.31,0,.15,0l-.21,0-.36-.1-.17-.06c-.24-.09.34.16.13.05l-.35-.19-.15-.1c-.1-.06.34.28.09.07l-.25-.25c-.09-.1-.16-.26.08.11l-.1-.15a2,2,0,0,1-.2-.38,1.52,1.52,0,0,0-.9-.69,1.5,1.5,0,0,0-1.85,1.05,1.77,1.77,0,0,0,.16,1.15,4.82,4.82,0,0,0,8.14.53,1.52,1.52,0,0,0-.54-2.06,1.54,1.54,0,0,0-2.05.54Z"/><path d="M297.14,217l.11,1.4a1.06,1.06,0,0,0,.13.58,1.36,1.36,0,0,0,.79.79,1.06,1.06,0,0,0,.58.13l.4-.05a1.49,1.49,0,0,0,.66-.39l.23-.3a1.45,1.45,0,0,0,.21-.76l-.11-1.4a1.15,1.15,0,0,0-.13-.58,1.11,1.11,0,0,0-.31-.48,1.14,1.14,0,0,0-.48-.31,1.08,1.08,0,0,0-.58-.13l-.4.05a1.39,1.39,0,0,0-.66.39l-.24.3a1.54,1.54,0,0,0-.2.76Z"/><path d="M293,183.56l.24.24a.69.69,0,0,0,.11.13s.2.26,0,0,.07.1.11.16l.18.29c.12.21.22.43.33.65,0-.05-.13-.31-.06-.12l.06.16.12.37c.06.22.11.44.15.67,0,.05,0,.26,0,0s0,0,0,0,0,.26,0,.39a5.2,5.2,0,0,1,0,.68c0,.06,0,.32,0,.05s0,0,0,0,0,.25-.08.37a1.5,1.5,0,1,0,2.89.8,7.58,7.58,0,0,0-2-7.06,1.5,1.5,0,0,0-2.12,2.13Z"/><path d="M229,114.13a3.2,3.2,0,0,1-.34-.63l.15.36a3.86,3.86,0,0,1-.26-.94l0,.4a4.58,4.58,0,0,1,0-1.11l-.06.4a4.46,4.46,0,0,1,.26-1l-.15.36a3.54,3.54,0,0,1,.42-.73,1.56,1.56,0,0,0,.15-1.16,1.59,1.59,0,0,0-.69-.9,1.56,1.56,0,0,0-1.16-.15,1.74,1.74,0,0,0-.89.69,5.33,5.33,0,0,0-.08,5.88,1.59,1.59,0,0,0,.89.68,1.5,1.5,0,0,0,1.7-2.2Z"/><path d="M225.12,104.43h.12l-.4,0a1.05,1.05,0,0,1,.24.06l-.36-.15.22.13-.3-.23a1,1,0,0,1,.21.21l-.23-.3a1.35,1.35,0,0,1,.15.26l-.15-.36a1.34,1.34,0,0,1,.07.27l-.05-.4a1,1,0,0,1,0,.24l.05-.39a.4.4,0,0,1,0,.15,1.22,1.22,0,0,0,0,.6,1.16,1.16,0,0,0,.18.56,1.21,1.21,0,0,0,.39.42,1.14,1.14,0,0,0,.51.27l.4,0a1.5,1.5,0,0,0,.75-.2l.31-.24a1.57,1.57,0,0,0,.38-.66,2.37,2.37,0,0,0,.1-.64,2.72,2.72,0,0,0-.08-.63,3,3,0,0,0-.22-.59,2.39,2.39,0,0,0-.13-.21,2.86,2.86,0,0,0-.39-.47,2.64,2.64,0,0,0-.5-.38,2.58,2.58,0,0,0-1.21-.33,1.15,1.15,0,0,0-.58.13,1,1,0,0,0-.48.31,1.14,1.14,0,0,0-.31.48,1.08,1.08,0,0,0-.13.58l0,.4a1.44,1.44,0,0,0,.39.66l.3.24a1.54,1.54,0,0,0,.76.2Z"/><path d="M229.9,102.9l.06,0-.31-.24a.85.85,0,0,1,.19.19l-.23-.3a1.75,1.75,0,0,1,.16.27l-.16-.36a1.24,1.24,0,0,1,.09.33l0-.4a1.82,1.82,0,0,1,0,.33l0-.39a.9.9,0,0,1-.09.32l.16-.36a1.09,1.09,0,0,1-.14.23l.24-.3a.8.8,0,0,1-.13.13,1.24,1.24,0,0,0-.31.48,1.36,1.36,0,0,0,0,1.16,1.17,1.17,0,0,0,.31.48,1.53,1.53,0,0,0,1.06.44l.4,0a1.47,1.47,0,0,0,.67-.39,2.71,2.71,0,0,0,.66-1.09,3,3,0,0,0,.12-.66,1.31,1.31,0,0,0,0-.28,2.94,2.94,0,0,0-.35-1.25,2.67,2.67,0,0,0-.88-.92,1.16,1.16,0,0,0-.56-.18,1.22,1.22,0,0,0-.6,0,1.15,1.15,0,0,0-.51.27,1.13,1.13,0,0,0-.39.42,1.54,1.54,0,0,0-.15,1.15l.15.36a1.55,1.55,0,0,0,.54.54Z"/><path d="M232.59,97.65,233.65,99a1.11,1.11,0,0,0,.49.31,1,1,0,0,0,.57.13,1.06,1.06,0,0,0,.58-.13,1.11,1.11,0,0,0,.49-.31l.23-.3a1.44,1.44,0,0,0,.2-.76l-.05-.4a1.57,1.57,0,0,0-.38-.66l-1.07-1.32a1.24,1.24,0,0,0-.48-.31,1.29,1.29,0,0,0-.58-.13,1.27,1.27,0,0,0-.58.13,1.11,1.11,0,0,0-.48.31l-.24.31a1.5,1.5,0,0,0-.2.75l0,.4a1.39,1.39,0,0,0,.39.66Z"/><path d="M244.09,97.83c0-.14,0-.27,0-.41l-.05.4a3.25,3.25,0,0,1,.2-.74l-.15.36a3.26,3.26,0,0,1,.37-.63l-.23.3a2.84,2.84,0,0,1,.49-.49l-.3.23a1.1,1.1,0,0,1,.21-.14,1.64,1.64,0,0,0,.69-.9,1.56,1.56,0,0,0-.15-1.16,1.5,1.5,0,0,0-.9-.68,1.52,1.52,0,0,0-1.16.15,4.39,4.39,0,0,0-2,3.71,1.63,1.63,0,0,0,.44,1.06,1.56,1.56,0,0,0,1.06.44,1.54,1.54,0,0,0,1.06-.44,1.52,1.52,0,0,0,.44-1.06Z"/><path d="M239.86,93.88a1.5,1.5,0,0,0,0-3,1.5,1.5,0,0,0,0,3Z"/><path d="M250.68,99.64a1.5,1.5,0,0,0,0-3,1.5,1.5,0,0,0,0,3Z"/><path d="M250.79,94.92a1.5,1.5,0,0,0,0-3,1.5,1.5,0,0,0,0,3Z"/><path d="M455.58,78.16a1.5,1.5,0,0,0,0-3,1.5,1.5,0,0,0,0,3Z"/><path d="M448.53,78.63a1.5,1.5,0,0,0,0-3,1.5,1.5,0,0,0,0,3Z"/><path d="M447.12,111.07a1.5,1.5,0,0,0,0-3,1.5,1.5,0,0,0,0,3Z"/><path d="M432.54,126.59a1.5,1.5,0,0,0,0-3,1.5,1.5,0,0,0,0,3Z"/><path d="M444.77,277.54a1.5,1.5,0,0,0,0-3,1.5,1.5,0,0,0,0,3Z"/><path d="M440.54,291.18a1.5,1.5,0,0,0,0-3,1.5,1.5,0,0,0,0,3Z"/><path d="M437.24,255.44a1.5,1.5,0,0,0,0-3,1.5,1.5,0,0,0,0,3Z"/><path d="M506.37,38.65a1.5,1.5,0,0,0,0-3,1.5,1.5,0,0,0,0,3Z"/><path d="M507.78,33.48a1.5,1.5,0,0,0,0-3,1.5,1.5,0,0,0,0,3Z"/><path d="M506.37,29.25a1.5,1.5,0,0,0,0-3,1.5,1.5,0,0,0,0,3Z"/><path d="M511.07,29.72a1.5,1.5,0,0,0,0-3,1.5,1.5,0,0,0,0,3Z"/></svg>
