<svg id="Layer_1" data-name="Layer 1" xmlns="http://www.w3.org/2000/svg" viewBox="0 0 516.29 197.84"><defs><style>.cls-1{fill:#322931;}.cls-2{fill:#e3e0e6;}.cls-3{fill:#a7a2c1;}</style></defs><title>Logo-Color-2</title><rect class="cls-1" x="-0.05" width="516" height="198"/><path class="cls-2" d="M200.61,188.72c-3.53,0-7.47-.91-9.93-3.65-2.2-2.44-3.1-6.67-.79-9.35a1,1,0,0,0-1.15-1.48c-4.32,1.92-7.7,5.23-11.42,8a190.48,190.48,0,0,0,3.38-25.71c.29-4.6.57-9.19.79-13.8a318,318,0,0,0-.05-38.19A111.23,111.23,0,0,0,179,87.05c-1.37-5.83-3.66-11.54-7.57-16.14a21.77,21.77,0,0,0-12-7.41,15.47,15.47,0,0,0-10.29,1.13,7,7,0,0,0-2.92,3,26.16,26.16,0,0,0-1.85,4.44.72.72,0,0,0-.1-.22c-.06-.1-.11-.2-.16-.3a2.14,2.14,0,0,1-.09-.34,3.23,3.23,0,0,1,0-.44,2,2,0,0,1,.09-.33,2.82,2.82,0,0,1,.21-.38.94.94,0,0,0,.1-.73,1,1,0,0,0-1.16-.66,1.12,1.12,0,0,0-.57.43,3.36,3.36,0,0,0,0,3.7,1,1,0,0,0,.57.44,1,1,0,0,0,.72-.1.75.75,0,0,0,.17-.14,29.68,29.68,0,0,0-.83,4.26c-.34,3-.15,6.7,2.07,9.06s6.5,3.18,8.06-.21a4.13,4.13,0,0,0,.11-3.25c1.67-.29,3.4,1,4.07,2.54,1,2.28-.44,4.78-2.14,6.27-3.57,3.1-8.9,3-13,1.15A18.74,18.74,0,0,1,132.79,83c-2.13-5.29-1.69-11.09.09-16.41a44.08,44.08,0,0,1,4-8.52,13.28,13.28,0,0,1,3.48-3.76,36.63,36.63,0,0,1,11.93-6.24,26.11,26.11,0,0,1,12.21-.21A25.78,25.78,0,0,1,174.28,52c5.71,4,9.58,10.11,12.43,16.35a135.65,135.65,0,0,1,6.52,19.07c1.14,3.94,2.4,7.84,3.45,11.81a143.38,143.38,0,0,1,3.41,17.18c.81,5.92,1.27,11.89,1.63,17.86.13,2.06.25,4.08.46,6.12q1,9.59,1.87,19.19c.7,7.85,1.37,15.72,1.63,23.6,0,1.42.08,2.83.07,4.25a.82.82,0,0,0,.41.76A28.79,28.79,0,0,1,200.61,188.72Z"/><path class="cls-2" d="M322.65,28.12c-2.28,2-6.47,3.06-9,.86a4.2,4.2,0,0,1-1.37-2.9,3.53,3.53,0,0,0,1.34,1,2.87,2.87,0,0,0,2.06.09c1-.37,1.27-1.16,1.53-2.14.59-2.16,1.08-4.6.31-6.78A6.15,6.15,0,0,0,314,14.4c-1.69-.62-3.08,0-4.49.91a30.68,30.68,0,0,0-5,4,50.46,50.46,0,0,0-11.41,17.55c-1.06,2.65-1.9,5.39-2.82,8.09-1,2.86-1.91,5.72-2.81,8.6-5,15.86-8.41,32.23-9.18,48.86a265.34,265.34,0,0,0,.5,28.48q.72,11.58,2.27,23.08c1.4,10.37,3.58,20.6,5.25,30.92.08.47.14.94.21,1.4a30.34,30.34,0,0,1-7.19,0,21.29,21.29,0,0,1-8.29-2.53,7.83,7.83,0,0,1-3-2.89c-.65-1.19-.49-2.76-1.56-3.71s-2.72-.7-4-.48a19.23,19.23,0,0,0-3.94,1.18c-5.08,2.11-9.31,5.88-14.5,7.74a14.85,14.85,0,0,1-2.6.67.87.87,0,0,0,0-.28c0-2.54-.13-5.08-.25-7.61-.19-3.79-.37-7.58-.46-11.38a204.25,204.25,0,0,1,1.33-30.48,202,202,0,0,1,5.37-25.87c2.23-8.53,4.72-17,7.41-25.39,5.58-17.39,11.89-34.67,19.93-51.08a96.81,96.81,0,0,1,6.4-11.54,68.46,68.46,0,0,1,8.44-10.16c3.77-3.74,8.11-7.76,13.23-9.52,4.32-1.49,9.34-1.66,13.36.76S323,11,324.4,15.39C325.73,19.48,326.2,25,322.65,28.12Z"/><path class="cls-3" d="M66.27,121.67l9.78-12.31-2.17-1.69-10.5,13.16a3.8,3.8,0,0,0-.73-.31,2.34,2.34,0,0,1-.48-.18L40.8,112.86q-9.16-3.27-9.17-10A8.34,8.34,0,0,1,34.4,96.5,9.39,9.39,0,0,1,41,93.91a13.81,13.81,0,0,1,4.59.72q3.49,1.34,6.76,5.79c.56.81,1.25,1.87,2,3.2s1.73,2.92,2.78,4.77L69.77,98.25,68,96l-3,2.29q-6-9.3-17.63-9.29a22.47,22.47,0,0,0-14,4.7q-6.64,5.07-6.64,12.68,0,9.66,7.48,13.88,7.49,4,23.06,8.33l-3,3.74A116.18,116.18,0,0,1,41,128a68.84,68.84,0,0,1-9.41-4.53q-7.72-4.47-7.73-14c0-.16,0-.71.06-1.63s.1-2.24.18-3.93H21.49A40.61,40.61,0,0,0,19.92,115q0,11.6,6.88,16.42,7.25,5,21,8.93l-9.89,12.44a35.63,35.63,0,0,0-4.59-.37Q18,152.45,11,160.06,0,171.54,0,178.65a10.52,10.52,0,0,0,2.17,6.88,7.85,7.85,0,0,0,6.52,2.9q4.59,0,9.78-6.64l16.42-20.65q8,2.79,18.23,11.35L69.05,160.3Q80,151.85,80,140,80,127,66.27,121.67ZM15.09,181.3q-3.51,4.35-6.52,4.35-5.67,0-5.67-7,0-7.72,8.21-13.52a25.77,25.77,0,0,1,15.57-5.43,25.13,25.13,0,0,1,5.31.6Zm56.25-27.76q-3.5,3.26-6.27,5.61c-1.86,1.57-3.46,2.88-4.83,3.93q-9.78-7.72-19.08-9.66l9.54-12.07q2.05.6,4,1.32c1.32.49,2.67.93,4,1.33q5.43,2.17,5.43,4.95c0,1.85-1.69,4.15-5.07,6.88L61,157.89q2.41-2.29,3.93-3.81L67,152c2.09-2.49,3.14-4.95,3.14-7.36A8.75,8.75,0,0,0,66,136.76a26.53,26.53,0,0,0-3.38-1.63,55.49,55.49,0,0,0-5.43-1.87l3-3.62q14.24,4.71,14.24,14.6Q74.48,150,71.34,153.54Z"/><path class="cls-3" d="M122.89,139.54l-12.8-15.94q-9.28,7.85-22.57,7.85v2.77l3,.25h.6c.4,0,1,0,1.81-.12v25.59L87,165.37l1.81,2.29,2.89-2.77,9.66,5.91,17.87-11.71-1.57-2.41L107,163.92l-5.55-3.38v-6.76Zm-21.49-6.88,3.26-1.09,8.81,10.74-12.07,8.21Z"/><path class="cls-3" d="M163.69,161.75l-1.81-2.17-3.38,2.77q-2.3-3.14-2.29-8.45V134.47l6.4-5.19-1.82-2.18-4.1,3.14-6.64-6.64q-5.55,8.22-16.18,11l-.6-.73q4.71-.48,4.71-5a4.61,4.61,0,0,0-1.51-3.56,5.11,5.11,0,0,0-3.56-1.39c-3.46,0-5.19,1.74-5.19,5.19q0,3.39,9.53,13.28l-7.36,6.88q-5.43,5.07-5.43,11,0,8.2,10.5,10.5l12.8-11a15.78,15.78,0,0,0,4.58,11Zm-15.93-5.68-8,6.89a7.38,7.38,0,0,1-3-.67,9.13,9.13,0,0,1-2.71-1.81,10.44,10.44,0,0,1-2-2.59,6.1,6.1,0,0,1-.78-2.9q0-2.66,2.9-5.8c.8-.8,1.61-1.57,2.41-2.29s1.61-1.49,2.42-2.29l3.13,3.5,2.18-1.93-8.33-9.3a33.65,33.65,0,0,0,9.17-4.1l2.54,2.29Z"/><polygon class="cls-3" points="307.58 117.08 317.12 108.63 315.31 106.46 312.89 108.51 306.13 102.48 296.35 110.93 298.16 113.1 300.7 110.93 307.58 117.08"/><path class="cls-3" d="M309,170.8l10.86-9.41-1.81-2.18L314.94,162c-1.85-1.37-2.77-3.94-2.77-7.73v-20l6-5.43-1.81-2-3.74,3-6.76-6.16L295,133.14l1.7,2.17,3.74-3.26,3.26,2.78V158Q303.72,166.94,309,170.8Z"/><path class="cls-3" d="M346.33,123.6h-7V104.17l5.07-4.47-1.81-2.17-11.71,9.9V123.6h-2.66q-2.42,0-4.1,3.86l-2.54,6.4,2.54,1.09,1.81-4.23h4.95v29l-6.76,5.67,1.81,2.17,3.86-3.26,7.12,6.52,11-9.17-1.81-2.18-4.23,3.63-2.53-2.42V130.72h3.26c2.65,0,4.42-1,5.31-3.14l2.65-6.63L348,119.86Z"/><path class="cls-3" d="M369.87,131.81c1.69,2.66,2.73,4.27,3.14,4.83a6.18,6.18,0,0,0,4.7,2.53q4.71,0,10.51-9.89l-2.3-1.7q-2.66,4.47-4.58,4.47-2.18,0-5.2-8.45-6.75,7.85-22.69,7.85v2.77l3.14.25h.48c.4,0,1,0,1.81-.12v26l-6.15,5.31,1.81,2.29,4.22-3.38,8.69,6.28,18.23-12.19-1.57-2.29-10.38,6.88-6.4-4.47V132.66Z"/><path class="cls-3" d="M432.52,128.43l-1.81-2.05-3.86,3.26-6.64-6.4L404.87,136.4V106.58a27.72,27.72,0,0,1,.61-6.88A23,23,0,0,1,406.81,97,32.39,32.39,0,0,1,409,93.66l-1.93-1.2a27.4,27.4,0,0,0-7.49,11.34q-.6-3.14-1-5.13c-.29-1.32-.51-2.31-.67-3l-2.29.72q.48,3.75.66,5.91c.12,1.45.18,2.42.18,2.9V159.7l-6.64,5.79,1.82,2.17,3.86-3.38,6.76,6.4,9.9-8.33-1.93-2.17-2.54,2.17-2.78-2.65V140.14l9.78-8.45,3,2.78v30.9q-3.74,4.11-3.74,8.57c0,1.77,1,4.43,3.14,8s3.14,5.75,3.14,6.64q0,2.89-5.2,7.24l1.69,2.05c1.77-1.37,3.22-2.55,4.35-3.56s2-1.83,2.66-2.47q3.85-4.23,3.86-8.09,0-2.53-4.47-7.73c-3-3.46-4.46-5.63-4.46-6.52a3.83,3.83,0,0,1,2.17-3.26,6.7,6.7,0,0,1,4-1.2,9.08,9.08,0,0,1,4,1.08l1.2-2.29a9.6,9.6,0,0,0-3.86-1.33V134Z"/><path class="cls-3" d="M473.92,139.54,461.13,123.6q-9.3,7.85-22.58,7.85v2.77l3,.25h.6c.41,0,1,0,1.81-.12v25.59l-5.91,5.43,1.81,2.29,2.9-2.77,9.65,5.91,17.87-11.71-1.57-2.41L458,163.92l-5.56-3.38v-6.76Zm-21.49-6.88,3.26-1.09,8.82,10.74-12.08,8.21Z"/><path class="cls-3" d="M511.34,134.1l4.95-4.58-1.69-2.18-3.74,3.38-24.5-27.28,3.74-3.38-1.93-2-10,8.93,19,21.13a33.54,33.54,0,0,1-14.49,3.38h-1.32c-.73,0-1.77,0-3.14-.12v2.77l3.26.12v26.2l-5.8,5.19,1.93,2,3-2.77,9.3,5.91Q499.51,163,514.6,163v-2.78h-3.26Zm-8.45,26.68-6.76,2.3-6.27-4V133.62a47.46,47.46,0,0,0,9.41-3l3.62,3.38Z"/><path class="cls-3" d="M207.51,140.7a119.41,119.41,0,0,1,12.14-19.83,78.6,78.6,0,0,1,5.17-6.2,13.72,13.72,0,0,0,6.05,9.49,14.51,14.51,0,0,0,6.68,1.89.79.79,0,0,0,.86-.57.77.77,0,0,0-.19-1,16.36,16.36,0,0,1-5.82-10,33.7,33.7,0,0,1,.61-12.25c.49-2.49,1.12-5,1.77-7.4a1,1,0,0,0-1.58-.92,99.41,99.41,0,0,0-14,16.21,91.59,91.59,0,0,0-9.49,18.17,120.65,120.65,0,0,0-3.9,11.75C205.5,141,207,141.69,207.51,140.7Z"/><path class="cls-3" d="M326.36,15.33c-1.44-4.67-4.07-9.52-8.05-12.48-6.48-4.81-15.68-3-21.84,1.42a68.89,68.89,0,0,0-15.84,16,87.42,87.42,0,0,0-7.08,12.31q-3,6.15-5.73,12.46c-3.9,9-7.41,18.26-10.65,27.56q-4.77,13.71-8.77,27.65c-2.26,7.9-4.35,15.85-6.07,23.89a172.13,172.13,0,0,0-3.49,34.41c-.07,8.08.42,16.12.72,24.18.05,1.1.08,2.2.06,3.31a1,1,0,0,0,.1.44,17,17,0,0,1-5.65-.84c-.95-.3-1.91-.62-2.85-1-.73-.29-1.34-.67-1.18-1.54.33-1.76,2.6-2,4-2.27a1,1,0,0,0,0-1.82c-8-1.16-14.42,4.51-21.41,7.32A34.28,34.28,0,0,1,207.5,188a.94.94,0,0,0,.14-.49c.05-7.66-.65-15.34-1.28-23q-.93-11.13-2.1-22.25c-.77-7.43-1-14.91-1.85-22.34a152.35,152.35,0,0,0-3.12-18c-1.12-4.66-2.58-9.21-3.91-13.81A153.58,153.58,0,0,0,188.61,68c-3-6.69-7.08-13.11-13.11-17.44a27.26,27.26,0,0,0-10.33-4.52,28.45,28.45,0,0,0-13,.06,37.87,37.87,0,0,0-12.73,6.51,15.48,15.48,0,0,0-3.72,3.68,45.59,45.59,0,0,0-4.34,8.84c-2,5.54-2.69,11.7-.76,17.36a20.71,20.71,0,0,0,9.46,11.3c4.25,2.36,9.4,3.07,13.9,1a10.14,10.14,0,0,0,5.37-5.53,6.14,6.14,0,0,0-1.57-6.69,5.25,5.25,0,0,0-6.13-1,1,1,0,0,0-.19,1.49,2.21,2.21,0,0,1-1.06,3.38,3.94,3.94,0,0,1-3.69-1.33c-2-2.07-1.9-5.61-1.53-8.25a24.14,24.14,0,0,1,3-8.91l.23-.37,0,0,.09-.1a7.53,7.53,0,0,1,.57-.56l.08-.07.1-.06.37-.25a8.52,8.52,0,0,1,.84-.46,12.6,12.6,0,0,1,3.94-1,16.12,16.12,0,0,1,5.18.43A20.47,20.47,0,0,1,170.69,73c3.43,4.38,5.38,9.7,6.6,15.07a110.67,110.67,0,0,1,2.26,16.52,314,314,0,0,1,.15,36c-.51,11.75-1.12,23.51-3.41,35.07q-.56,2.79-1.2,5.57a3.42,3.42,0,0,0,.65,2.15A33.73,33.73,0,0,1,161.12,189a34.33,34.33,0,0,1-9,0c-1.2-.16-1.19,1.73,0,1.89a35.6,35.6,0,0,0,23.46-5.07,66.08,66.08,0,0,0,6.46-4.86,47.06,47.06,0,0,1,5-3.61,9.53,9.53,0,0,0,.62,6.46c1.56,3.45,4.94,5.52,8.53,6.34a27.67,27.67,0,0,0,12.6-.52c4.2-1,7.95-3,11.74-5A33.34,33.34,0,0,1,229,181a3.53,3.53,0,0,0-.56,3.75c.78,1.49,2.78,1.89,4.25,2.39a22.85,22.85,0,0,0,5.59,1.25c6.08.42,11.27-3.37,16.23-6.32a26.4,26.4,0,0,1,8-3.47,6.81,6.81,0,0,1,2.2-.21c.88.11.86,1,1,1.7a7.83,7.83,0,0,0,2.24,3.74c2.25,2.15,5.36,3.22,8.35,3.86a31.2,31.2,0,0,0,9.59.56c.44,0,.88-.09,1.31-.15A1,1,0,0,0,288,188a32.26,32.26,0,0,0,15.84-7.22,8.43,8.43,0,0,0,4.41,5.35c3.29,1.77,7.22,1.62,10.56,3.23,1.09.53,2.05-1.1.95-1.63-3-1.44-6.32-1.6-9.41-2.72-2.4-.87-5.28-3.21-4.7-6.07a1,1,0,0,0-1.58-.92,30.07,30.07,0,0,1-15.66,8c-1.21-8.51-3.13-16.93-4.46-25.43a325.74,325.74,0,0,1-3.84-44.87,181.53,181.53,0,0,1,1.35-27.18,189.29,189.29,0,0,1,4.66-23.36c1.59-6.09,3.46-12.1,5.46-18.07s3.81-11.73,7-17.06a41.28,41.28,0,0,1,10.64-12.25,18.43,18.43,0,0,1,1.91-1.25,4,4,0,0,1,1.19-.53h0a2.69,2.69,0,0,1,1.19.2A4.1,4.1,0,0,1,315.38,18c1.14,2,.6,4.43,0,6.51-.19.7-.28,1.14-1.11.8-.51-.22-.91-.65-.71-1.21A1,1,0,0,0,312.2,23c-1.79,1-2.09,3.29-1.41,5.09a6.25,6.25,0,0,0,3.83,3.56c3.41,1.21,7.6-.2,10-2.8C327.9,25.24,327.7,19.72,326.36,15.33ZM200.61,188.72c-3.53,0-7.47-.91-9.93-3.65-2.2-2.44-3.1-6.67-.79-9.35a1,1,0,0,0-1.15-1.48c-4.32,1.92-7.7,5.23-11.42,8a190.48,190.48,0,0,0,3.38-25.71c.29-4.6.57-9.19.79-13.8a318,318,0,0,0-.05-38.19A111.23,111.23,0,0,0,179,87.05c-1.37-5.83-3.66-11.54-7.57-16.14a21.77,21.77,0,0,0-12-7.41,15.47,15.47,0,0,0-10.29,1.13,7,7,0,0,0-2.92,3,26.16,26.16,0,0,0-1.85,4.44.72.72,0,0,0-.1-.22c-.06-.1-.11-.2-.16-.3a2.14,2.14,0,0,1-.09-.34,3.23,3.23,0,0,1,0-.44,2,2,0,0,1,.09-.33,2.82,2.82,0,0,1,.21-.38.94.94,0,0,0,.1-.73,1,1,0,0,0-1.16-.66,1.12,1.12,0,0,0-.57.43,3.36,3.36,0,0,0,0,3.7,1,1,0,0,0,.57.44,1,1,0,0,0,.72-.1.75.75,0,0,0,.17-.14,29.68,29.68,0,0,0-.83,4.26c-.34,3-.15,6.7,2.07,9.06s6.5,3.18,8.06-.21a4.13,4.13,0,0,0,.11-3.25c1.67-.29,3.4,1,4.07,2.54,1,2.28-.44,4.78-2.14,6.27-3.57,3.1-8.9,3-13,1.15A18.74,18.74,0,0,1,132.79,83c-2.13-5.29-1.69-11.09.09-16.41a44.08,44.08,0,0,1,4-8.52,13.28,13.28,0,0,1,3.48-3.76,36.63,36.63,0,0,1,11.93-6.24,26.11,26.11,0,0,1,12.21-.21A25.78,25.78,0,0,1,174.28,52c5.71,4,9.58,10.11,12.43,16.35a135.65,135.65,0,0,1,6.52,19.07c1.14,3.94,2.4,7.84,3.45,11.81a143.38,143.38,0,0,1,3.41,17.18c.81,5.92,1.27,11.89,1.63,17.86.13,2.06.25,4.08.46,6.12q1,9.59,1.87,19.19c.7,7.85,1.37,15.72,1.63,23.6,0,1.42.08,2.83.07,4.25a.82.82,0,0,0,.41.76A28.79,28.79,0,0,1,200.61,188.72Zm122-160.6c-2.28,2-6.47,3.06-9,.86a4.2,4.2,0,0,1-1.37-2.9,3.53,3.53,0,0,0,1.34,1,2.87,2.87,0,0,0,2.06.09c1-.37,1.27-1.16,1.53-2.14.59-2.16,1.08-4.6.31-6.78A6.15,6.15,0,0,0,314,14.4c-1.69-.62-3.08,0-4.49.91a30.68,30.68,0,0,0-5,4,50.46,50.46,0,0,0-11.41,17.55c-1.06,2.65-1.9,5.39-2.82,8.09-1,2.86-1.91,5.72-2.81,8.6-5,15.86-8.41,32.23-9.18,48.86a265.34,265.34,0,0,0,.5,28.48q.72,11.58,2.27,23.08c1.4,10.37,3.58,20.6,5.25,30.92.08.47.14.94.21,1.4a30.34,30.34,0,0,1-7.19,0,21.29,21.29,0,0,1-8.29-2.53,7.83,7.83,0,0,1-3-2.89c-.65-1.19-.49-2.76-1.56-3.71s-2.72-.7-4-.48a19.23,19.23,0,0,0-3.94,1.18c-5.08,2.11-9.31,5.88-14.5,7.74a14.85,14.85,0,0,1-2.6.67.87.87,0,0,0,0-.28c0-2.54-.13-5.08-.25-7.61-.19-3.79-.37-7.58-.46-11.38a204.25,204.25,0,0,1,1.33-30.48,202,202,0,0,1,5.37-25.87c2.23-8.53,4.72-17,7.41-25.39,5.58-17.39,11.89-34.67,19.93-51.08a96.81,96.81,0,0,1,6.4-11.54,68.46,68.46,0,0,1,8.44-10.16c3.77-3.74,8.11-7.76,13.23-9.52,4.32-1.49,9.34-1.66,13.36.76S323,11,324.4,15.39C325.73,19.48,326.2,25,322.65,28.12Z"/><path class="cls-3" d="M255.92,169.67a2.32,2.32,0,0,0-.36-.16,2.06,2.06,0,0,0-1.1,0,2,2,0,0,0-.52.21,1.65,1.65,0,0,0-.42.33,2.1,2.1,0,0,0-.22.3,2.37,2.37,0,0,0-.17.36,1.68,1.68,0,0,0-.1.55,2.06,2.06,0,0,0,.06.55,1.86,1.86,0,0,0,.22.55,2.34,2.34,0,0,0,.24.31,2,2,0,0,0,.32.27.76.76,0,0,0,.36.11.67.67,0,0,0,.37,0,.93.93,0,0,0,.66-1.16l-.09-.22a1.2,1.2,0,0,0-.17-.21l-.06-.06h0v0H255a.67.67,0,0,0,.2.12.86.86,0,0,0,.36.08,1,1,0,0,0,.67-.28.94.94,0,0,0,0-1.34A2.37,2.37,0,0,0,255.92,169.67Z"/><path class="cls-3" d="M262.64,164.61a1,1,0,0,0,0,1.89A.95.95,0,0,0,262.64,164.61Z"/><path class="cls-3" d="M272.52,170.68a.74.74,0,0,0,0-.36.87.87,0,0,0-.14-.31,1.24,1.24,0,0,0-.4-.39,1,1,0,0,0-.3-.12,1.31,1.31,0,0,0-.59,0,1.4,1.4,0,0,0-.42.18,1.67,1.67,0,0,0-.49.5,1.17,1.17,0,0,0-.19.54.9.9,0,0,0,0,.23,1.42,1.42,0,0,0,.38.88l.12.12a3.3,3.3,0,0,0,.3.22,2.87,2.87,0,0,0,.37.15,3,3,0,0,0,.6.12l.39,0a.69.69,0,0,0,.37-.08.72.72,0,0,0,.3-.2.69.69,0,0,0,.2-.3.86.86,0,0,0,.08-.36.93.93,0,0,0-.28-.67A1,1,0,0,0,272.52,170.68Z"/><path class="cls-3" d="M271,157.23a3.86,3.86,0,0,0,.64-.25l.19-.15.15-.19a1,1,0,0,0,.11-.6.86.86,0,0,0-.19-.45.9.9,0,0,0-.49-.34l-.81-.11a.7.7,0,0,0-.38,0,.76.76,0,0,0-.35.11,1.07,1.07,0,0,0-.23.2,1,1,0,0,0-.66.11,1,1,0,0,0-.43.56,1,1,0,0,0,.09.73,1,1,0,0,0,.57.43,3.07,3.07,0,0,0,1.13.08A3.79,3.79,0,0,0,271,157.23Z"/><path class="cls-3" d="M265.73,149.56a3.9,3.9,0,0,0-.64-.26,5.09,5.09,0,0,0-.66-.12,3.43,3.43,0,0,0-1.15.09,1,1,0,0,0-.56.44.91.91,0,0,0-.09.72.86.86,0,0,0,.15.32.75.75,0,0,0-.14.3.94.94,0,0,0,.09.73l.15.19a.89.89,0,0,0,.42.24,2.11,2.11,0,0,0,.5.1h.29a2.46,2.46,0,0,0,1-.29,2,2,0,0,0,.61-.5,2.12,2.12,0,0,0,.48-.9,1.06,1.06,0,0,0-.05-.61A.86.86,0,0,0,265.73,149.56Z"/><path class="cls-3" d="M269.11,138a1.18,1.18,0,0,0,.22-.28.54.54,0,0,0,.07-.13,1.85,1.85,0,0,0,.2-.73,1.56,1.56,0,0,0-.42-1.16,1.17,1.17,0,0,0-.3-.24,1.92,1.92,0,0,0-.41-.19l-.2,0a2.5,2.5,0,0,0-.47-.05,3.7,3.7,0,0,0-1.26.27,1,1,0,0,0-.56.43,1,1,0,0,0-.1.73,1,1,0,0,0,.44.56.89.89,0,0,0,.73.1l.06,0a.74.74,0,0,0,0,.39.92.92,0,0,0,.43.57,1.4,1.4,0,0,0,.34.13,1.22,1.22,0,0,0,.6,0,1.18,1.18,0,0,0,.33-.12A2,2,0,0,0,269.11,138Z"/><path class="cls-3" d="M275,143.63a1,1,0,0,0-.28-.67.91.91,0,0,0-.66-.27,3.05,3.05,0,0,0-2.5,1.62,1,1,0,0,0-.1.73,1,1,0,0,0,.44.56,1,1,0,0,0,.68.09,1,1,0,0,0,.43,1.06,1,1,0,0,0,1.3-.34A4.46,4.46,0,0,0,275,143.63Z"/><path class="cls-3" d="M273.23,114.61a1,1,0,0,0-.67-.28,1,1,0,0,0-.67.28,1,1,0,0,0-.28.67,1.06,1.06,0,0,0,.18.55V116a5.07,5.07,0,0,0-.13.87,1.55,1.55,0,0,0,.72,1.35,1.4,1.4,0,0,0,1.4,0,1.26,1.26,0,0,0,.56-.7,1.23,1.23,0,0,0-.1-.92,1,1,0,0,0-.57-.43h0a1.65,1.65,0,0,0-.43-1.48Z"/><path class="cls-3" d="M268.2,120.35a1.67,1.67,0,0,0-.38-.06.43.43,0,0,0-.16,0,1,1,0,0,0-.67.28,1,1,0,0,0-.28.66.93.93,0,0,0,.28.67,1,1,0,0,0,.67.28h0l0,0a.22.22,0,0,1,0,.08l0,.1v0h0a.95.95,0,0,0,.67,1.61,1,1,0,0,0,.66-.28,1.69,1.69,0,0,0,.5-.83,2.16,2.16,0,0,0,0-1,2.08,2.08,0,0,0-.3-.72,2.21,2.21,0,0,0-.68-.68A1.63,1.63,0,0,0,268.2,120.35Z"/><path class="cls-3" d="M271.56,128.31a.6.6,0,0,0,.19.3.94.94,0,0,0,1.34,0l.15-.19a1.06,1.06,0,0,0,.1-.3,1.21,1.21,0,0,1,.05-.18.43.43,0,0,1,0-.07l.09-.09.11-.06.09,0h.18a.64.64,0,0,0,.36-.08.77.77,0,0,0,.31-.19,1,1,0,0,0,.27-.67,1,1,0,0,0-.27-.67l-.2-.15a1,1,0,0,0-.47-.13h-.29a2.81,2.81,0,0,0-.49.09,2.14,2.14,0,0,0-.47.2,2,2,0,0,0-.4.29,1.21,1.21,0,0,0-.2.19,2.78,2.78,0,0,0-.3.4,2.25,2.25,0,0,0-.27,1A.64.64,0,0,0,271.56,128.31Z"/><path class="cls-3" d="M259.92,144.92a.92.92,0,0,0-.34-.34l-.59-.3a.77.77,0,0,0-.35-.12.82.82,0,0,0-.38,0,.76.76,0,0,0-.32.17.75.75,0,0,0-.24.26l-.1.23a1.06,1.06,0,0,0,0,.5l.1.23a1,1,0,0,0,.33.34l.59.3a.76.76,0,0,0,.36.11.67.67,0,0,0,.37,0,1.15,1.15,0,0,0,.57-.43l.09-.23a.85.85,0,0,0,0-.5Z"/><path class="cls-3" d="M258.71,158.6a1.83,1.83,0,0,0-1.34-.64,2,2,0,0,0-1.34.44,2,2,0,0,0-.81,1.52,1,1,0,0,0,.28.67.93.93,0,0,0,.67.28,1,1,0,0,0,.67-.28,1,1,0,0,0,.25-.58h0v.07a.45.45,0,0,1,0-.11v0l.05,0,.05,0,.06,0,0,0a.24.24,0,0,1,0,.08v.09a.59.59,0,0,1,0,.08.94.94,0,0,0-.18.54,1,1,0,0,0,.27.67.94.94,0,0,0,.67.27.92.92,0,0,0,.67-.27,2,2,0,0,0,.52-1.38,1.93,1.93,0,0,0-.1-.63A2.45,2.45,0,0,0,258.71,158.6Z"/><path class="cls-3" d="M262.22,129.39a2.41,2.41,0,0,0-.57-1.9,1.58,1.58,0,0,0-2.18-.07,2.72,2.72,0,0,0-.47,2.07,10.83,10.83,0,0,0,.25,2,1,1,0,0,0,1.17.66,1,1,0,0,0,.66-1.16c-.05-.23-.09-.46-.13-.69a.91.91,0,0,0,.32.06A1,1,0,0,0,262.22,129.39Z"/><path class="cls-3" d="M266.1,102.23a1,1,0,0,0,.67.28l.25,0,.05,0,0,.09a.69.69,0,0,0,.2.31.67.67,0,0,0,.3.19.64.64,0,0,0,.36.08,1,1,0,0,0,.67-.27l.15-.2a.85.85,0,0,0,.13-.47,3.45,3.45,0,0,0-.1-.56,3.38,3.38,0,0,0-.22-.52,1.34,1.34,0,0,0-.17-.27,2.93,2.93,0,0,0-.36-.43,1,1,0,0,0-.67-.28l-.25,0a.89.89,0,0,0-.42.24l-.62.49a.79.79,0,0,0-.2.31.85.85,0,0,0,0,.72A.79.79,0,0,0,266.1,102.23Z"/><path class="cls-3" d="M263.83,114.67a1,1,0,0,0,.94-.94c0-.39,0-.77,0-1.16a.9.9,0,0,0,.6-.27.93.93,0,0,0,0-1.33,1,1,0,0,0-.67-.28l-.86,0a1,1,0,0,0-.67.27,1.06,1.06,0,0,0-.28.67c0,.68,0,1.37,0,2a1,1,0,0,0,.28.67A.92.92,0,0,0,263.83,114.67Z"/><path class="cls-3" d="M273.15,85.7A1.5,1.5,0,0,0,273,86a.14.14,0,0,0,0,.06v0l0,.26v0a1.11,1.11,0,0,0,.16.59.78.78,0,0,0,.24.27.76.76,0,0,0,.32.17.7.7,0,0,0,.38,0l.13,0a.94.94,0,0,0,.47,0l.22-.1a.92.92,0,0,0,.34-.34h0l.1-.24v0a1.67,1.67,0,0,0,.05-.31,1.45,1.45,0,0,0,0-.3s0,0,0-.06a1.59,1.59,0,0,0-.12-.27,1.37,1.37,0,0,0-.18-.24l0,0a1.46,1.46,0,0,0-.21-.16l0,0a1.39,1.39,0,0,0-.28-.12h0l-.26,0h0a1.54,1.54,0,0,0-.3,0h0l-.24.1-.05,0-.19.15v0h0A1.37,1.37,0,0,0,273.15,85.7Z"/><path class="cls-3" d="M271.22,98.09a1,1,0,0,0,.59-.22.39.39,0,0,0,.1.08,1,1,0,0,0,1.29-.34,6.48,6.48,0,0,0,.82-1.77,5.08,5.08,0,0,0,.19-.86,2.33,2.33,0,0,0,0-1,1.39,1.39,0,0,0-1-1,1.56,1.56,0,0,0-1.45.49,4.81,4.81,0,0,0-1,1.5,5.48,5.48,0,0,0-.47,2.18A1,1,0,0,0,271.22,98.09Z"/><path class="cls-3" d="M275.56,106.23a.93.93,0,0,0,.34-1.29,1,1,0,0,0-.56-.43,2.15,2.15,0,0,0-.91,0,1.84,1.84,0,0,0-.6.24,2.12,2.12,0,0,0-.93,1.21,2.17,2.17,0,0,0,.19,1.5,1.82,1.82,0,0,0,.39.53,2.17,2.17,0,0,0,.74.45.93.93,0,0,0,.73-.09,1,1,0,0,0,.44-.57,1,1,0,0,0-.1-.72l-.15-.19a.69.69,0,0,0-.22-.16l-.11-.07,0,0a.21.21,0,0,1,0-.06s0,0,0-.06v0h0v0l0,0,.06,0,0,0H275A.88.88,0,0,0,275.56,106.23Zm-.67.11h0Zm0,0h0Z"/><path class="cls-3" d="M273.79,72.63a1.89,1.89,0,0,0,.25.31,1.7,1.7,0,0,0,.68.41,1.41,1.41,0,0,0,.79,0,1.47,1.47,0,0,0,.69-.38,2,2,0,0,0,.23-.28.6.6,0,0,0,.09-.15c.05-.12.11-.24.15-.37s0-.26.06-.39v-.2a2.93,2.93,0,0,0-.07-.41,1.75,1.75,0,0,0-.42-.72,1,1,0,0,0-.67-.28.74.74,0,0,0-.36.09.67.67,0,0,0-.31.19l-.06.08a.66.66,0,0,0-.24,0,.94.94,0,0,0-.67.27,1.86,1.86,0,0,0-.23.32,1.42,1.42,0,0,0-.16.61,1.29,1.29,0,0,0,.08.55A2.37,2.37,0,0,0,273.79,72.63Z"/><path class="cls-3" d="M276.33,76.33l-.26.2a1.71,1.71,0,0,0-.21.26.25.25,0,0,0,0,.07,1.52,1.52,0,0,0-.12.32,2.17,2.17,0,0,0,0,.25v.06a1.27,1.27,0,0,0,.14.53,1.5,1.5,0,0,0,.18.24l0,0a1.41,1.41,0,0,0,.23.18,1.48,1.48,0,0,0,.29.12.08.08,0,0,0,.06,0,1.46,1.46,0,0,0,.31,0h0l.26,0h0a1.1,1.1,0,0,0,.46-.26.84.84,0,0,0,.18-.24,1.08,1.08,0,0,0,.14-.53.66.66,0,0,0,0-.14.75.75,0,0,0,.1-.32.7.7,0,0,0,0-.38l-.09-.22a.92.92,0,0,0-.34-.34l-.23-.1a1.06,1.06,0,0,0-.5,0l-.19.07A1.73,1.73,0,0,0,276.33,76.33Z"/><path class="cls-3" d="M282.65,54.83a1,1,0,0,0-.72-.1,2.13,2.13,0,0,0-.94.61,2.43,2.43,0,0,0-.53,1,2.54,2.54,0,0,0,0,1.13,2.12,2.12,0,0,0,.5,1,.94.94,0,0,0,1.34,0,.94.94,0,0,0,.27-.67l0-.25a.84.84,0,0,0-.13-.27s-.05-.09-.08-.14a.24.24,0,0,1,0-.08V56.9a.83.83,0,0,1,0-.15l.06-.11.06-.07.15-.08-.11,0h0a.92.92,0,0,0,.52-.41,1,1,0,0,0,.1-.73A1,1,0,0,0,282.65,54.83Z"/><path class="cls-3" d="M287.57,41.8a.57.57,0,0,0,0-.18.7.7,0,0,0,0-.38.76.76,0,0,0-.17-.32.78.78,0,0,0-.27-.24.93.93,0,0,0-.73-.1,1,1,0,0,0-.56.44,1.6,1.6,0,0,0-.13.3.36.36,0,0,0,0,.09,3.11,3.11,0,0,0-.06.44,2.08,2.08,0,0,0,.21.84,1,1,0,0,0,.1.17,2.22,2.22,0,0,0,.28.33,1.66,1.66,0,0,0,.75.4.67.67,0,0,0,.37,0,.8.8,0,0,0,.35-.11.72.72,0,0,0,.27-.25.76.76,0,0,0,.17-.32,1,1,0,0,0-.1-.73A1,1,0,0,0,287.57,41.8Z"/><path class="cls-3" d="M183.51,168.87a1,1,0,0,0-1.16.66c-.25.82-.5,1.63-.76,2.45-.05.17-.1.34-.16.51s-.05.14-.07.21,0,0,0,.05l-.11.2,0,0,0,0c-.08,0-.24.1,0,0h0a.94.94,0,0,0,.55,1.8,2.22,2.22,0,0,0,1.16-.93,4.52,4.52,0,0,0,.48-1.13c.29-.92.57-1.84.85-2.76A1,1,0,0,0,183.51,168.87Zm-2.36,4.18h0Zm0,0h0Z"/><path class="cls-3" d="M182.06,163.92l.19.15a1,1,0,0,0,.48.12l.25,0a1,1,0,0,0,.42-.24l.27-.32a.8.8,0,0,0,.19-.3.69.69,0,0,0,.08-.37.64.64,0,0,0-.08-.36.77.77,0,0,0-.19-.31l-.19-.14A.91.91,0,0,0,183,162l-.25,0a1.1,1.1,0,0,0-.42.24l-.27.32a.79.79,0,0,0-.2.31.85.85,0,0,0,0,.72A.79.79,0,0,0,182.06,163.92Z"/><path class="cls-3" d="M185.6,151.29l-.21-.09a.5.5,0,0,0,0-.12.67.67,0,0,0,0-.37.76.76,0,0,0-.17-.32.72.72,0,0,0-.27-.25,1,1,0,0,0-.72-.09.92.92,0,0,0-.57.43,1.69,1.69,0,0,0-.2.85,2,2,0,0,0,.24.83,1.94,1.94,0,0,0,.59.62,1.66,1.66,0,0,0,.38.18,1.64,1.64,0,0,0,.44.09.74.74,0,0,0,.36-.09.78.78,0,0,0,.5-.5.64.64,0,0,0,.08-.36,1,1,0,0,0-.27-.67Z"/><path class="cls-3" d="M188.38,156.61l.24.09a.62.62,0,0,0-.1.22,1,1,0,0,0,.1.72l.14.2a1.1,1.1,0,0,0,.42.24,2.18,2.18,0,0,0,.44,0,1.56,1.56,0,0,0,.43-.08,1.91,1.91,0,0,0,1.33-1.78,1.7,1.7,0,0,0-.21-.82,1.86,1.86,0,0,0-.55-.6,1.88,1.88,0,0,0-1.12-.32,2.06,2.06,0,0,0-.84.22,1.78,1.78,0,0,0-.62.57.66.66,0,0,0-.11.35.81.81,0,0,0,0,.38A1,1,0,0,0,188.38,156.61Z"/><path class="cls-3" d="M191.2,164.47a.85.85,0,0,0-.5,0,3.22,3.22,0,0,0-1.37.58,3.72,3.72,0,0,0-1.12,1.28,1,1,0,0,0-.09.73,1,1,0,0,0,.43.56,1,1,0,0,0,.71.1.77.77,0,0,0,.22.33.93.93,0,0,0,1.33,0,4,4,0,0,0,1.08-2.67,1,1,0,0,0-.37-.75A.74.74,0,0,0,191.2,164.47Z"/><path class="cls-3" d="M186.89,141.91a2.27,2.27,0,0,0-1.11-.59,2.41,2.41,0,0,0-1.58.21.94.94,0,0,0,.91,1.65l-.07,0,.18-.05h.11l.13,0,.09.05,0,.05,0,0a.19.19,0,0,0,0,.07v.11a.5.5,0,0,1,0,.13.41.41,0,0,1-.05.09,1.85,1.85,0,0,1-.14.14l.11-.08h0a.94.94,0,0,0-.31,1.26,1,1,0,0,0,.57.44.94.94,0,0,0,.73-.1A2,2,0,0,0,187,145a2.39,2.39,0,0,0,.43-.74,2.29,2.29,0,0,0,.08-1.27A2,2,0,0,0,186.89,141.91Z"/><path class="cls-3" d="M186,129.34h0l0-.05v0Z"/><path class="cls-3" d="M186.67,131.6a2.88,2.88,0,0,0,2.65-1.25,1,1,0,0,0-.33-1.29,1,1,0,0,0-1.28.31l-.05.07-.08.07-.14.09-.06,0-.19.06-.12,0h-.44l-.22-.06,0,0a1.18,1.18,0,0,1-.19-.11l0,0a.93.93,0,0,1-.14-.14l0,.07-.05-.07h0c-.05-.05-.08-.11,0,0a1.51,1.51,0,0,1-.11-.22,1,1,0,0,0-.57-.43,1,1,0,0,0-.73.09,1,1,0,0,0-.43.57,1.1,1.1,0,0,0,.1.73A2.89,2.89,0,0,0,186.67,131.6Zm.91-2.09,0,0C187.51,129.58,187.43,129.61,187.58,129.51Z"/><path class="cls-3" d="M188.4,138.49a1,1,0,0,0,.42-.25l.15-.19a1,1,0,0,0,.13-.47c0-.3,0-.59-.07-.89a.86.86,0,0,0-.08-.36.79.79,0,0,0-.2-.31,1,1,0,0,0-.67-.27l-.25,0a.89.89,0,0,0-.42.24l-.14.19a.91.91,0,0,0-.13.48c0,.3,0,.59.07.89a.64.64,0,0,0,.08.36.67.67,0,0,0,.19.3.69.69,0,0,0,.31.2.64.64,0,0,0,.36.08Z"/><path class="cls-3" d="M184.67,115.76l.07.08h0l.09.12a1.18,1.18,0,0,1,.11.19c.07.11.13.24.19.36s0,0,0,.07l.08.23c0,.14.07.27.09.41v0c0,.08,0,.16,0,.24a3.1,3.1,0,0,1,0,.43v0a2,2,0,0,1-.05.24.94.94,0,1,0,1.82.5,4.76,4.76,0,0,0-1.24-4.44.94.94,0,1,0-1.34,1.33A1.1,1.1,0,0,1,184.67,115.76Z"/><path class="cls-3" d="M143.18,64.76a1,1,0,0,0-.08-.14,3.15,3.15,0,0,0-.24-.3,1.86,1.86,0,0,0-.32-.23,1.58,1.58,0,0,0-.76-.21.73.73,0,0,0-.36.08.79.79,0,0,0-.31.2.64.64,0,0,0-.19.3.78.78,0,0,0-.09.37l0,.25a.82.82,0,0,0,.24.41l.19.15.17.07v.09a.73.73,0,0,0,.12.35.78.78,0,0,0,.24.27.76.76,0,0,0,.32.17l.25,0a.91.91,0,0,0,.48-.13l.19-.15a.82.82,0,0,0,.24-.41,1.4,1.4,0,0,0,.06-.41,1.72,1.72,0,0,0,0-.39A2,2,0,0,0,143.18,64.76Z"/><path class="cls-3" d="M145.75,63.18a.77.77,0,0,0-.35-.12.7.7,0,0,0-.38,0,.76.76,0,0,0-.32.17.69.69,0,0,0-.25.26,1,1,0,0,0-.09.73l.09.23a.64.64,0,0,0,.13.15.65.65,0,0,0-.08.17.64.64,0,0,0-.08.36.69.69,0,0,0,.08.37.73.73,0,0,0,.19.3,1,1,0,0,0,.67.28l.25,0a.89.89,0,0,0,.42-.24,1.73,1.73,0,0,0,.42-.68,1.54,1.54,0,0,0,.07-.42.54.54,0,0,0,0-.18,1.67,1.67,0,0,0-.22-.78A1.61,1.61,0,0,0,145.75,63.18Z"/><path class="cls-3" d="M148.49,61l-.67-.83a.72.72,0,0,0-.3-.2.8.8,0,0,0-.37-.08.73.73,0,0,0-.36.08.69.69,0,0,0-.31.2l-.14.19a.89.89,0,0,0-.13.48l0,.25a1,1,0,0,0,.24.41c.23.28.45.56.68.83a.61.61,0,0,0,.3.2.73.73,0,0,0,.36.08.8.8,0,0,0,.37-.08.66.66,0,0,0,.3-.2l.15-.19a1,1,0,0,0,.13-.48l0-.25A.82.82,0,0,0,148.49,61Z"/><path class="cls-3" d="M153.85,59.18a1,1,0,0,0-.72.09,2.77,2.77,0,0,0-1.29,2.34,1,1,0,0,0,.28.67,1,1,0,0,0,.67.28,1,1,0,0,0,.66-.28,1,1,0,0,0,.28-.67.28.28,0,0,1,0-.09,1.11,1.11,0,0,1,.07-.26,1.74,1.74,0,0,1,.1-.19l.18-.18a1,1,0,0,0,.42-.55.94.94,0,0,0-.09-.73A1,1,0,0,0,153.85,59.18Z"/><path class="cls-3" d="M151.06,57.24a1,1,0,0,0,0,1.89A.95.95,0,0,0,151.06,57.24Z"/><path class="cls-3" d="M157.88,60.86a1,1,0,0,0,0,1.89A.95.95,0,0,0,157.88,60.86Z"/><path class="cls-3" d="M158,57.89a1,1,0,0,0,0,1.89A.95.95,0,0,0,158,57.89Z"/><path class="cls-3" d="M286.93,47.33a1,1,0,0,0,0,1.89A.95.95,0,0,0,286.93,47.33Z"/><path class="cls-3" d="M282.48,47.63a1,1,0,0,0,0,1.89A.95.95,0,0,0,282.48,47.63Z"/><path class="cls-3" d="M281.6,68.06a1,1,0,0,0,0,1.89A.95.95,0,0,0,281.6,68.06Z"/><path class="cls-3" d="M272.42,79.73a1,1,0,0,0,0-1.89A.95.95,0,0,0,272.42,79.73Z"/><path class="cls-3" d="M280.12,174.8a1,1,0,0,0,0-1.89A.95.95,0,0,0,280.12,174.8Z"/><path class="cls-3" d="M277.45,181.5a1,1,0,0,0,0,1.89A.95.95,0,0,0,277.45,181.5Z"/><path class="cls-3" d="M275.38,159a1,1,0,0,0,0,1.89A.95.95,0,0,0,275.38,159Z"/><path class="cls-3" d="M318.91,22.46a.94.94,0,0,0,0,1.88A.94.94,0,0,0,318.91,22.46Z"/><path class="cls-3" d="M319.8,19.2a1,1,0,0,0,0,1.89A.95.95,0,0,0,319.8,19.2Z"/><path class="cls-3" d="M318.91,18.42a1,1,0,0,0,0-1.89A.95.95,0,0,0,318.91,18.42Z"/><path class="cls-3" d="M321.87,16.83a1,1,0,0,0,0,1.89A.95.95,0,0,0,321.87,16.83Z"/></svg>